<?xml version="1.0" encoding="utf-8"?><!DOCTYPE svg PUBLIC "-//W3C//DTD SVG 1.1//EN" "http://www.w3.org/Graphics/SVG/1.1/DTD/svg11.dtd"><svg xmlns="http://www.w3.org/2000/svg" xmlns:xlink="http://www.w3.org/1999/xlink"><symbol viewBox="0 0 512 512" id="social-facebook" xmlns="http://www.w3.org/2000/svg"><path d="M288 192v-38.1c0-17.2 3.8-25.9 30.5-25.9H352V64h-55.9c-68.5 0-91.1 31.4-91.1 85.3V192h-45v64h45v192h83V256h56.4l7.6-64h-64z"/></symbol><symbol viewBox="0 0 512 512" id="social-pinterest" xmlns="http://www.w3.org/2000/svg"><path d="M256 32C132.3 32 32 132.3 32 256c0 91.7 55.2 170.5 134.1 205.2-.6-15.6-.1-34.4 3.9-51.4 4.3-18.2 28.8-122.1 28.8-122.1s-7.2-14.3-7.2-35.4c0-33.2 19.2-58 43.2-58 20.4 0 30.2 15.3 30.2 33.6 0 20.5-13.1 51.1-19.8 79.5-5.6 23.8 11.9 43.1 35.4 43.1 42.4 0 71-54.5 71-119.1 0-49.1-33.1-85.8-93.2-85.8-67.9 0-110.3 50.7-110.3 107.3 0 19.5 5.8 33.3 14.8 43.9 4.1 4.9 4.7 6.9 3.2 12.5-1.1 4.1-3.5 14-4.6 18-1.5 5.7-6.1 7.7-11.2 5.6-31.3-12.8-45.9-47-45.9-85.6 0-63.6 53.7-139.9 160.1-139.9 85.5 0 141.8 61.9 141.8 128.3 0 87.9-48.9 153.5-120.9 153.5-24.2 0-46.9-13.1-54.7-27.9 0 0-13 51.6-15.8 61.6-4.7 17.3-14 34.5-22.5 48 20.1 5.9 41.4 9.2 63.5 9.2 123.7 0 224-100.3 224-224C480 132.3 379.7 32 256 32z"/></symbol><symbol viewBox="0 0 512 512" id="social-twitter" xmlns="http://www.w3.org/2000/svg"><path d="M492 109.5c-17.4 7.7-36 12.9-55.6 15.3 20-12 35.4-31 42.6-53.6-18.7 11.1-39.4 19.2-61.5 23.5C399.8 75.8 374.6 64 346.8 64c-53.5 0-96.8 43.4-96.8 96.9 0 7.6.8 15 2.5 22.1-80.5-4-151.9-42.6-199.6-101.3-8.3 14.3-13.1 31-13.1 48.7 0 33.6 17.2 63.3 43.2 80.7-16-.4-31-4.8-44-12.1v1.2c0 47 33.4 86.1 77.7 95-8.1 2.2-16.7 3.4-25.5 3.4-6.2 0-12.3-.6-18.2-1.8 12.3 38.5 48.1 66.5 90.5 67.3-33.1 26-74.9 41.5-120.3 41.5-7.8 0-15.5-.5-23.1-1.4C62.8 432 113.7 448 168.3 448 346.6 448 444 300.3 444 172.2c0-4.2-.1-8.4-.3-12.5C462.6 146 479 129 492 109.5z"/></symbol><symbol viewBox="0 0 512 512" id="social-youtube" xmlns="http://www.w3.org/2000/svg"><path d="M508.6 148.8c0-45-33.1-81.2-74-81.2C379.2 65 322.7 64 265 64h-18c-57.6 0-114.2 1-169.6 3.6C36.6 67.6 3.5 104 3.5 149 1 184.6-.1 220.2 0 255.8c-.1 35.6 1 71.2 3.4 106.9 0 45 33.1 81.5 73.9 81.5 58.2 2.7 117.9 3.9 178.6 3.8 60.8.2 120.3-1 178.6-3.8 40.9 0 74-36.5 74-81.5 2.4-35.7 3.5-71.3 3.4-107 .2-35.6-.9-71.2-3.3-106.9zM207 353.9V157.4l145 98.2-145 98.3z"/></symbol></svg>