<?xml version="1.0" encoding="utf-8"?><!DOCTYPE svg PUBLIC "-//W3C//DTD SVG 1.1//EN" "http://www.w3.org/Graphics/SVG/1.1/DTD/svg11.dtd"><svg xmlns="http://www.w3.org/2000/svg" xmlns:xlink="http://www.w3.org/1999/xlink"><symbol viewBox="0 0 24 24" id="arrow-back" xmlns="http://www.w3.org/2000/svg"><path d="M20 11H7.83l5.59-5.59L12 4l-8 8 8 8 1.41-1.41L7.83 13H20v-2z"/></symbol><symbol viewBox="0 0 24 24" id="download" xmlns="http://www.w3.org/2000/svg"><path d="M19 9h-4V3H9v6H5l7 7 7-7zM5 18v2h14v-2H5z"/></symbol><symbol viewBox="0 0 24 24" id="image" xmlns="http://www.w3.org/2000/svg"><path d="M21 19V5c0-1.1-.9-2-2-2H5c-1.1 0-2 .9-2 2v14c0 1.1.9 2 2 2h14c1.1 0 2-.9 2-2zM8.5 13.5l2.5 3.01L14.5 12l4.5 6H5l3.5-4.5z"/></symbol><symbol viewBox="0 0 279 62" id="logo-horizontal" xmlns="http://www.w3.org/2000/svg"><title>Wikimedia Foundation</title><use xlink:href="#da"/><defs><path id="da" d="M83.46 25.83l4.378-14.102h5.738l4.34 14.102 4.893-14.102h5.959l-8.608 24.515h-4.082L90.67 19.18 85.3 36.243h-4.083L72.61 11.728h5.959L83.46 25.83zm28.287-14.102h5.518v24.515h-5.518V11.728zm11.587 0h5.517V21.81l9.306-10.083h6.805l-9.821 10.85c.846 1.17 2.428 3.362 4.708 6.54 2.281 3.179 3.973 5.554 5.113 7.125h-6.437l-7.246-9.682-2.464 2.74v6.942h-5.518V11.728h.037zm25.049 0h5.518v24.515h-5.518V11.728zm33.693 9.097l-6.657 13.408h-3.274l-6.621-13.408v15.418h-5.517V11.728h7.467l6.363 13.481 6.4-13.481h7.431v24.515h-5.518V20.825h-.074zm29.39-9.097v4.859h-12.285v5.078h11.035v4.677h-11.035v5.078h12.69v4.823H193.7V11.728h17.766zm24.13 3.215c2.354 2.155 3.531 5.115 3.531 8.914 0 3.8-1.14 6.832-3.458 9.061-2.28 2.229-5.811 3.325-10.52 3.325h-8.423V11.728h8.718c4.451 0 7.798 1.096 10.152 3.215zm-4.009 14.577c1.361-1.278 2.023-3.105 2.023-5.517 0-2.41-.662-4.274-2.023-5.553-1.361-1.315-3.421-1.936-6.217-1.936h-3.09V31.42h3.495c2.501 0 4.451-.62 5.812-1.9zm12.322-17.792h5.517v24.515h-5.517V11.728zm29.169 24.515l-2.281-5.298h-10.336l-2.28 5.298h-5.849l10.667-24.515h5.334L279 36.243h-5.922zm-7.467-17.208l-3.09 7.124h6.18l-3.09-7.124zM82.651 47.386v2.96h4.782v1.68h-4.781v4.42h-1.84v-10.74h7.21v1.68h-5.37zm25.822 7.526c-1.103 1.06-2.427 1.571-4.046 1.571-1.618 0-2.942-.511-4.046-1.57-1.103-1.06-1.655-2.376-1.655-3.947 0-1.57.552-2.886 1.655-3.945 1.104-1.06 2.428-1.571 4.046-1.571 1.619 0 2.943.511 4.046 1.57 1.104 1.06 1.656 2.375 1.656 3.946 0 1.571-.552 2.887-1.656 3.946zm-1.324-6.686c-.735-.767-1.655-1.132-2.722-1.132-1.066 0-1.986.365-2.722 1.132a3.825 3.825 0 0 0-1.103 2.74c0 1.096.368 2.01 1.103 2.74.736.731 1.656 1.133 2.722 1.133 1.067 0 1.987-.365 2.722-1.133a3.822 3.822 0 0 0 1.104-2.74c0-1.096-.368-2.009-1.104-2.74zm16.957 5.736c.478.585 1.177.877 2.023.877.846 0 1.508-.292 2.023-.877.515-.584.736-1.352.736-2.338v-5.955h1.839v6.028c0 1.535-.441 2.74-1.287 3.58-.846.84-1.95 1.243-3.274 1.243s-2.428-.402-3.274-1.242c-.846-.84-1.287-2.01-1.287-3.58v-6.03h1.839v5.956c-.073.986.184 1.754.662 2.338zm26.815-8.293h1.839V56.41h-1.986l-6.106-7.818v7.818h-1.839V45.67h1.839l6.29 8.001v-8.001h-.037zm22.254 1.425c1.03.95 1.545 2.228 1.545 3.909 0 1.68-.515 2.996-1.508 3.946-.993.986-2.538 1.461-4.635 1.461h-3.568V45.67h3.715c1.913 0 3.421.475 4.451 1.425zm-.258 3.945c0-2.447-1.434-3.69-4.23-3.69h-1.839v7.344h2.023c1.325 0 2.318-.292 3.017-.913.662-.622 1.029-1.535 1.029-2.74zm14.971 2.923l-1.067 2.448h-1.949l4.745-10.741h1.95l4.745 10.741h-1.95l-1.067-2.448h-5.407zm4.672-1.68l-1.95-4.421-1.949 4.42h3.899zm17.766-4.933v9.061h-1.839v-9.06h-3.274v-1.645h8.387v1.644h-3.274zm14.529-1.68h1.839V56.41h-1.839V45.67zm23.1 9.243c-1.103 1.06-2.428 1.571-4.046 1.571-1.619 0-2.943-.511-4.046-1.57-1.104-1.06-1.655-2.376-1.655-3.947 0-1.57.551-2.886 1.655-3.945 1.103-1.06 2.427-1.571 4.046-1.571 1.618 0 2.943.511 4.046 1.57 1.104 1.06 1.655 2.375 1.655 3.946 0 1.571-.551 2.887-1.655 3.946zm-1.324-6.686c-.736-.767-1.655-1.132-2.722-1.132s-1.986.365-2.722 1.132a3.822 3.822 0 0 0-1.104 2.74c0 1.096.368 2.01 1.104 2.74.736.731 1.655 1.133 2.722 1.133s1.986-.365 2.722-1.133a3.82 3.82 0 0 0 1.103-2.74c0-1.096-.367-2.009-1.103-2.74zm22.621-2.557h1.84V56.41h-1.987l-6.106-7.818v7.818h-1.839V45.67h1.839l6.29 8.001-.037-8.001zM33.84 49.943c9.307-1.315 16.442-9.243 16.442-18.815 0-5.846-2.648-11.034-6.804-14.541l-9.638 9.572v23.784zm-5.407 0V26.16l-9.637-9.609a18.896 18.896 0 0 0-6.805 14.541c0 9.61 7.136 17.537 16.442 18.852zm19.348-35.365c4.451 4.42 6.879 10.302 6.879 16.513 0 6.211-2.465 12.13-6.879 16.514-4.45 4.42-10.373 6.832-16.626 6.832a23.545 23.545 0 0 1-16.626-6.832c-4.414-4.384-6.915-10.266-6.915-16.514 0-6.247 2.465-12.13 6.879-16.514.367-.365.772-.73 1.177-1.096L10.3 8.147c-.405.366-.773.731-1.178 1.096-2.869 2.85-5.113 6.138-6.658 9.828A30.563 30.563 0 0 0 0 31.091c0 4.165.81 8.22 2.464 12.02 1.582 3.69 3.826 6.979 6.658 9.828 2.87 2.85 6.18 5.079 9.895 6.613A31.132 31.132 0 0 0 31.119 62c4.193 0 8.276-.804 12.101-2.448a31.698 31.698 0 0 0 9.895-6.613c2.869-2.85 5.113-6.138 6.658-9.828a30.565 30.565 0 0 0 2.464-12.02c0-4.165-.81-8.22-2.464-12.02-1.582-3.69-3.826-6.978-6.658-9.828-.368-.365-.773-.73-1.177-1.096l-5.334 5.334c.405.33.773.695 1.177 1.097zM31.12 0c5.37 0 9.71 4.311 9.71 9.645s-4.34 9.646-9.71 9.646c-5.37 0-9.711-4.312-9.711-9.646 0-5.334 4.34-9.645 9.71-9.645z"/></defs></symbol><symbol viewBox="0 0 179 131" id="logo-stacked" xmlns="http://www.w3.org/2000/svg"><title>Stacked Logo</title><use xlink:href="#ea"/><defs><path id="ea" d="M9.412 101.276l3.792-12.36h4.971l3.762 12.36 4.245-12.36h5.167l-7.463 21.489H20.35l-4.684-14.953-4.653 14.953H7.478L0 88.9h5.167l4.245 12.376zM33.948 88.9h4.789v21.49h-4.79V88.9zm10.047 0h4.789v8.842l8.068-8.842h5.907l-8.521 9.51c.74 1.03 2.1 2.941 4.079 5.732 1.98 2.79 3.445 4.868 4.442 6.248h-5.59l-6.255-8.493-2.13 2.396v6.082h-4.79V88.9zm21.725 0h4.79v21.49h-4.79V88.9zm29.219 7.977l-5.771 11.754h-2.87l-5.742-11.754v13.513h-4.79V88.9h6.482l5.515 11.814L93.307 88.9h6.451v21.49H94.97V96.877h-.03zM120.44 88.9v4.262H109.79v4.413h9.563v4.095h-9.578v4.459h10.968v4.231h-15.757V88.87h15.44l.015.03zm20.925 2.821c2.039 1.896 3.067 4.49 3.067 7.81 0 3.322-.982 5.991-3.007 7.947-1.979 1.957-5.046 2.912-9.125 2.912h-7.312V88.9h7.554c3.883 0 6.783.971 8.823 2.821zm-3.505 12.785c1.178-1.122 1.752-2.73 1.752-4.838s-.574-3.746-1.752-4.868c-1.179-1.153-2.961-1.699-5.394-1.699h-2.689v13.073h3.037c2.206 0 3.898-.546 5.046-1.668zM148.572 88.9h4.79v21.49h-4.79V88.9zm25.306 21.49l-1.979-4.641h-8.959l-1.979 4.641h-5.076l9.246-21.49h4.623L179 110.39h-5.122zm-6.481-15.075l-2.674 6.249h5.363l-2.689-6.248zM20.985 123.373v2.472h3.958v1.41h-3.958v3.685H19.49v-8.962h5.938v1.41h-4.442v-.015zm19.399 6.309c-.892.894-2.01 1.319-3.354 1.319-1.345 0-2.463-.455-3.354-1.319-.892-.895-1.345-1.987-1.345-3.306 0-1.32.453-2.427 1.345-3.307.891-.894 2.01-1.319 3.354-1.319 1.344 0 2.462.455 3.354 1.319.891.895 1.344 1.987 1.344 3.307 0 1.319-.423 2.411-1.344 3.306zm-1.088-5.612c-.604-.637-1.345-.955-2.236-.955-.891 0-1.632.318-2.236.955a3.252 3.252 0 0 0-.922 2.306c0 .894.318 1.668.922 2.305.604.637 1.345.955 2.236.955.891 0 1.632-.318 2.236-.955a3.252 3.252 0 0 0 .922-2.305 3.141 3.141 0 0 0-.922-2.306zm12.102 4.777c.407.486.951.698 1.661.698.71 0 1.24-.227 1.662-.698.408-.485.605-1.122.605-1.956v-4.959h1.495v5.035c0 1.274-.347 2.275-1.057 2.972-.695.698-1.632 1.062-2.72 1.062-1.118 0-2.01-.349-2.72-1.062-.694-.697-1.057-1.698-1.057-2.972v-5.035h1.496v4.959c.03.834.212 1.471.635 1.956zm20.23-6.885h1.495v8.963H71.49l-5.046-6.536v6.536H64.95v-8.963h1.496l5.167 6.688.015-6.688zm16.452 1.153c.861.773 1.269 1.85 1.269 3.261 0 1.38-.408 2.502-1.239 3.306-.83.803-2.1 1.213-3.822 1.213h-2.962v-8.963h3.068c1.616.03 2.855.409 3.686 1.183zm-.227 3.291c0-2.048-1.178-3.079-3.505-3.079h-1.495v6.142h1.661c1.088 0 1.92-.258 2.493-.773.56-.485.846-1.259.846-2.29zm10.47 2.472l-.891 2.047H95.83l3.928-8.963h1.602l3.928 8.963h-1.602l-.891-2.047h-4.472zm3.868-1.411l-1.632-3.685-1.632 3.685h3.264zm12.751-4.125v7.553h-1.496v-7.553h-2.719v-1.38h6.919v1.38h-2.704zm10.092-1.38h1.496v8.963h-1.496v-8.963zm17.193 7.72c-.891.894-2.009 1.319-3.354 1.319-1.345 0-2.463-.455-3.354-1.319-.891-.895-1.345-1.987-1.345-3.306 0-1.32.454-2.427 1.345-3.307.891-.879 2.009-1.319 3.354-1.319 1.345 0 2.463.455 3.354 1.319.891.895 1.345 1.987 1.345 3.307 0 1.319-.454 2.411-1.345 3.306zm-1.118-5.612c-.604-.637-1.345-.955-2.236-.955-.891 0-1.632.318-2.236.955a3.254 3.254 0 0 0-.922 2.306c0 .894.318 1.668.922 2.305.604.637 1.345.955 2.236.955.891 0 1.632-.318 2.236-.955a3.253 3.253 0 0 0 .922-2.305c0-.895-.318-1.699-.922-2.306zm16.785-2.108h1.496v8.963h-1.632l-5.046-6.536v6.536h-1.496v-8.963h1.496l5.167 6.688v-6.688h.015zM92.778 62.194c11.452-1.638 20.26-11.496 20.26-23.476 0-7.265-3.248-13.77-8.385-18.093l-11.905 11.95v29.619h.03zm-6.677 0V32.576l-11.905-11.95a23.667 23.667 0 0 0-8.385 18.092c.03 11.95 8.838 21.838 20.29 23.476zm23.87-44.071c5.485 5.505 8.491 12.815 8.491 20.595 0 7.78-3.037 15.09-8.491 20.594-5.484 5.506-12.766 8.523-20.516 8.523-7.75 0-15.033-3.048-20.517-8.522-5.484-5.475-8.49-12.815-8.49-20.595 0-7.78 3.036-15.09 8.49-20.595.483-.486.952-.925 1.435-1.35l-6.632-6.658c-.484.455-.952.895-1.435 1.38a38.855 38.855 0 0 0-8.234 12.24 38.266 38.266 0 0 0-3.037 14.983A38.21 38.21 0 0 0 54.072 53.7c1.949 4.58 4.683 8.705 8.233 12.239a38.692 38.692 0 0 0 12.193 8.265 37.873 37.873 0 0 0 14.926 3.048 37.817 37.817 0 0 0 14.927-3.048c4.563-1.956 8.672-4.701 12.192-8.265a38.858 38.858 0 0 0 8.234-12.239 38.255 38.255 0 0 0 3.037-14.983 38.2 38.2 0 0 0-3.037-14.984c-1.949-4.58-4.683-8.705-8.234-12.239-.483-.485-.951-.925-1.435-1.38l-6.632 6.673c.544.41 1.012.865 1.495 1.335zM89.455 0c6.602 0 11.965 5.384 11.965 12.011 0 6.628-5.363 12.011-11.965 12.011-6.602 0-11.966-5.383-11.966-12.01C77.49 5.383 82.853 0 89.455 0z"/></defs></symbol><symbol viewBox="0 0 24 24" id="mail" xmlns="http://www.w3.org/2000/svg"><path fill="none" d="M0 0h24v24H0z"/><path d="M20 4H4c-1.1 0-1.99.9-1.99 2L2 18c0 1.1.9 2 2 2h16c1.1 0 2-.9 2-2V6c0-1.1-.9-2-2-2zm0 14H4V8l8 5 8-5v10zm-8-7L4 6h16l-8 5z"/></symbol><symbol viewBox="0 0 24 24" id="menu" xmlns="http://www.w3.org/2000/svg"><path d="M3 18h18v-2H3v2zm0-5h18v-2H3v2zm0-7v2h18V6H3z"/></symbol><symbol viewBox="0 0 24 24" id="open" xmlns="http://www.w3.org/2000/svg"><path d="M0 0h24v24H0z" fill="none"/><path d="M19 19H5V5h7V3H5a2 2 0 0 0-2 2v14a2 2 0 0 0 2 2h14c1.1 0 2-.9 2-2v-7h-2v7zM14 3v2h3.59l-9.83 9.83 1.41 1.41L19 6.41V10h2V3h-7z"/></symbol><symbol viewBox="0 0 24 24" id="search" xmlns="http://www.w3.org/2000/svg"><path d="M15.5 14h-.79l-.28-.27A6.471 6.471 0 0 0 16 9.5 6.5 6.5 0 1 0 9.5 16c1.61 0 3.09-.59 4.23-1.57l.27.28v.79l5 4.99L20.49 19l-4.99-5zm-6 0C7.01 14 5 11.99 5 9.5S7.01 5 9.5 5 14 7.01 14 9.5 11.99 14 9.5 14z"/></symbol><symbol viewBox="0 0 264 512" id="social-facebook" xmlns="http://www.w3.org/2000/svg"><path d="M76.7 512V283H0v-91h76.7v-71.7C76.7 42.4 124.3 0 193.8 0c33.3 0 61.9 2.5 70.2 3.6V85h-48.2c-37.8 0-45.1 18-45.1 44.3V192H256l-11.7 91h-73.6v229"/></symbol><symbol viewBox="0 0 448 512" id="social-instagram" xmlns="http://www.w3.org/2000/svg"><path d="M224.1 141c-63.6 0-114.9 51.3-114.9 114.9s51.3 114.9 114.9 114.9S339 319.5 339 255.9 287.7 141 224.1 141zm0 189.6c-41.1 0-74.7-33.5-74.7-74.7s33.5-74.7 74.7-74.7 74.7 33.5 74.7 74.7-33.6 74.7-74.7 74.7zm146.4-194.3c0 14.9-12 26.8-26.8 26.8-14.9 0-26.8-12-26.8-26.8s12-26.8 26.8-26.8 26.8 12 26.8 26.8zm76.1 27.2c-1.7-35.9-9.9-67.7-36.2-93.9-26.2-26.2-58-34.4-93.9-36.2-37-2.1-147.9-2.1-184.9 0-35.8 1.7-67.6 9.9-93.9 36.1s-34.4 58-36.2 93.9c-2.1 37-2.1 147.9 0 184.9 1.7 35.9 9.9 67.7 36.2 93.9s58 34.4 93.9 36.2c37 2.1 147.9 2.1 184.9 0 35.9-1.7 67.7-9.9 93.9-36.2 26.2-26.2 34.4-58 36.2-93.9 2.1-37 2.1-147.8 0-184.8zM398.8 388c-7.8 19.6-22.9 34.7-42.6 42.6-29.5 11.7-99.5 9-132.1 9s-102.7 2.6-132.1-9c-19.6-7.8-34.7-22.9-42.6-42.6-11.7-29.5-9-99.5-9-132.1s-2.6-102.7 9-132.1c7.8-19.6 22.9-34.7 42.6-42.6 29.5-11.7 99.5-9 132.1-9s102.7-2.6 132.1 9c19.6 7.8 34.7 22.9 42.6 42.6 11.7 29.5 9 99.5 9 132.1s2.7 102.7-9 132.1z"/></symbol><symbol viewBox="0 0 512 512" id="social-pinterest" xmlns="http://www.w3.org/2000/svg"><path d="M256 32C132.3 32 32 132.3 32 256c0 91.7 55.2 170.5 134.1 205.2-.6-15.6-.1-34.4 3.9-51.4 4.3-18.2 28.8-122.1 28.8-122.1s-7.2-14.3-7.2-35.4c0-33.2 19.2-58 43.2-58 20.4 0 30.2 15.3 30.2 33.6 0 20.5-13.1 51.1-19.8 79.5-5.6 23.8 11.9 43.1 35.4 43.1 42.4 0 71-54.5 71-119.1 0-49.1-33.1-85.8-93.2-85.8-67.9 0-110.3 50.7-110.3 107.3 0 19.5 5.8 33.3 14.8 43.9 4.1 4.9 4.7 6.9 3.2 12.5-1.1 4.1-3.5 14-4.6 18-1.5 5.7-6.1 7.7-11.2 5.6-31.3-12.8-45.9-47-45.9-85.6 0-63.6 53.7-139.9 160.1-139.9 85.5 0 141.8 61.9 141.8 128.3 0 87.9-48.9 153.5-120.9 153.5-24.2 0-46.9-13.1-54.7-27.9 0 0-13 51.6-15.8 61.6-4.7 17.3-14 34.5-22.5 48 20.1 5.9 41.4 9.2 63.5 9.2 123.7 0 224-100.3 224-224C480 132.3 379.7 32 256 32z"/></symbol><symbol viewBox="0 0 512 512" id="social-twitter" xmlns="http://www.w3.org/2000/svg"><path d="M459.37 151.716c.325 4.548.325 9.097.325 13.645 0 138.72-105.583 298.558-298.558 298.558-59.452 0-114.68-17.219-161.137-47.106 8.447.974 16.568 1.299 25.34 1.299 49.055 0 94.213-16.568 130.274-44.832-46.132-.975-84.792-31.188-98.112-72.772 6.498.974 12.995 1.624 19.818 1.624 9.421 0 18.843-1.3 27.614-3.573-48.081-9.747-84.143-51.98-84.143-102.985v-1.299c13.969 7.797 30.214 12.67 47.431 13.319-28.264-18.843-46.781-51.005-46.781-87.391 0-19.492 5.197-37.36 14.294-52.954 51.655 63.675 129.3 105.258 216.365 109.807-1.624-7.797-2.599-15.918-2.599-24.04 0-57.828 46.782-104.934 104.934-104.934 30.213 0 57.502 12.67 76.67 33.137 23.715-4.548 46.456-13.32 66.599-25.34-7.798 24.366-24.366 44.833-46.132 57.827 21.117-2.273 41.584-8.122 60.426-16.243-14.292 20.791-32.161 39.308-52.628 54.253z"/></symbol><symbol viewBox="0 0 512 512" id="social-youtube" xmlns="http://www.w3.org/2000/svg"><path d="M508.6 148.8c0-45-33.1-81.2-74-81.2C379.2 65 322.7 64 265 64h-18c-57.6 0-114.2 1-169.6 3.6C36.6 67.6 3.5 104 3.5 149 1 184.6-.1 220.2 0 255.8c-.1 35.6 1 71.2 3.4 106.9 0 45 33.1 81.5 73.9 81.5 58.2 2.7 117.9 3.9 178.6 3.8 60.8.2 120.3-1 178.6-3.8 40.9 0 74-36.5 74-81.5 2.4-35.7 3.5-71.3 3.4-107 .2-35.6-.9-71.2-3.3-106.9zM207 353.9V157.4l145 98.2-145 98.3z"/></symbol><symbol viewBox="0 0 24 24" id="translate" xmlns="http://www.w3.org/2000/svg"><path d="M0 0h24v24H0z" fill="none"/><path d="M12.87 15.07l-2.54-2.51.03-.03A17.52 17.52 0 0 0 14.07 6H17V4h-7V2H8v2H1v1.99h11.17C11.5 7.92 10.44 9.75 9 11.35 8.07 10.32 7.3 9.19 6.69 8h-2c.73 1.63 1.73 3.17 2.98 4.56l-5.09 5.02L4 19l5-5 3.11 3.11.76-2.04zM18.5 10h-2L12 22h2l1.12-3h4.75L21 22h2l-4.5-12zm-2.62 7l1.62-4.33L19.12 17h-3.24z"/></symbol><symbol viewBox="0 0 24 24" id="trending" xmlns="http://www.w3.org/2000/svg"><path d="M22 12l-4-4v3H3v2h15v3z"/><path d="M0 0h24v24H0z" fill="none"/></symbol><symbol viewBox="0 0 64 64" id="wikimedia" xmlns="http://www.w3.org/2000/svg"><title><?php esc_html_e( 'Logo Mark', 'wmfoundation' );?></title><use xlink:href="#qa"/><defs><path id="qa" d="M34.8 51.554c9.569-1.357 16.907-9.541 16.907-19.422 0-6.034-2.724-11.39-6.998-15.01l-9.91 9.88v24.552zm-5.561 0V27.003l-9.91-9.919a19.535 19.535 0 0 0-6.998 15.01c0 9.919 7.338 18.103 16.908 19.46zm19.896-36.506a23.93 23.93 0 0 1 7.073 17.046c0 6.412-2.534 12.521-7.073 17.047-4.577 4.563-10.667 7.052-17.097 7.052a24.165 24.165 0 0 1-17.097-7.052C10.4 44.615 7.83 38.543 7.83 32.094s2.534-12.52 7.073-17.046c.378-.377.794-.755 1.21-1.132L10.591 8.41c-.416.377-.794.754-1.21 1.132-2.95 2.941-5.258 6.335-6.847 10.144A31.653 31.653 0 0 0 0 32.094c0 4.3.832 8.486 2.534 12.408 1.627 3.81 3.934 7.203 6.847 10.145 2.95 2.942 6.354 5.242 10.175 6.826A31.908 31.908 0 0 0 32 64c4.312 0 8.51-.83 12.444-2.527a32.585 32.585 0 0 0 10.175-6.826c2.95-2.942 5.258-6.336 6.847-10.145A31.654 31.654 0 0 0 64 32.094c0-4.3-.832-8.485-2.534-12.408-1.627-3.809-3.934-7.203-6.847-10.144a35.45 35.45 0 0 0-1.21-1.132l-5.485 5.506c.416.34.795.717 1.21 1.132zM32 0c5.523 0 9.986 4.45 9.986 9.956 0 5.507-4.463 9.957-9.986 9.957-5.523 0-9.986-4.45-9.986-9.957C22.014 4.45 26.477 0 32 0z"/></defs></symbol></svg>