<svg width="810" height="521" viewBox="0 0 810 521" fill="none" xmlns="http://www.w3.org/2000/svg">
<g clip-path="url(#clip0)">
<path d="M0 521.031H30V-0.03125H0V521.031ZM60 521.031H150V-0.03125H60V521.031ZM180 -0.03125V521.031H270V-0.03125H180Z" fill="#990000"/>
<path d="M720 521.031H750V-0.03125H720V521.031ZM780 -0.03125V521.031H810V-0.03125H780ZM300 521.031H330V-0.03125H300V521.031ZM360 -0.03125V521.031H390V-0.03125H360Z" fill="#339966"/>
<path d="M420 521.031H510V-0.03125H420V521.031ZM540 521.031H570V-0.03125H540V521.031ZM600 -0.03125V521.031H690V-0.03125H600Z" fill="#006699"/>
</g>
<defs>
<clipPath id="clip0">
<rect width="810" height="521" fill="white"/>
</clipPath>
</defs>
</svg>
