<svg version="1.1" viewBox="0 0 24 24" xmlns="http://www.w3.org/2000/svg"><path d="m12 0.19202c-6.4084 0-11.749 5.2331-11.749 11.808 0 6.4407 5.2069 11.808 11.749 11.808 6.4084 0 11.749-5.2331 11.749-11.808 0-6.4407-5.3404-11.808-11.749-11.808zm0 21.469c-5.3404 0-9.6127-4.428-9.6127-9.6611 0-5.3673 4.2723-9.6611 9.6127-9.6611 5.3404 0 9.6127 4.428 9.6127 9.6611 0 5.3673-4.2723 9.6611-9.6127 9.6611zm-1.3351-2.952h2.6702v-8.0509h-2.6702zm0-10.735h2.6702v-2.6836h-2.6702z" stroke-width="1.3384"/></svg>