<svg xmlns="http://www.w3.org/2000/svg" width="20" height="20" fill="none"><path fill="currentColor" fill-rule="evenodd" d="M10.17 12.11a13.43 13.43 0 0 1-2.91-1.41 11.46 11.46 0 0 0 2.81-5.37H12V4H7.31a4 4 0 0 0-.2-.56C6.87 2.79 6.6 2 6.6 2l-1.47.5s.4.89.6 1.5H0v1.33h2.15A11.23 11.23 0 0 0 5 10.7a17.19 17.19 0 0 1-5 2.1c.373.547.663 1.007.87 1.38a23.28 23.28 0 0 0 5.22-2.51 15.643 15.643 0 0 0 3.56 1.77l.52-1.33ZM18.56 18H20L15.44 6.51h-1.89L9 17.98h1.38a.59.59 0 0 0 .4-.14.77.77 0 0 0 .22-.3L12 15h5l.93 2.57c.05.12.13.227.23.31a.61.61 0 0 0 .4.12Zm-3.67-8.5 1.58 4.19-3.93.01 1.58-4.19.19-.56c.067-.213.13-.443.19-.69.107.42.237.834.39 1.24ZM8.54 5.33H3.63a9.11 9.11 0 0 0 2.46 4.45 8.11 8.11 0 0 0 2.45-4.45Z" clip-rule="evenodd"/></svg>