<svg xmlns="http://www.w3.org/2000/svg" xmlns:xlink="http://www.w3.org/1999/xlink" width="64" height="64"><use xlink:href="#a"/><defs><path id="a" d="M34.8 51.554c9.569-1.357 16.907-9.541 16.907-19.422 0-6.034-2.724-11.39-6.998-15.01l-9.91 9.88v24.552Zm-5.561 0V27.003l-9.91-9.919a19.535 19.535 0 0 0-6.998 15.01c0 9.919 7.338 18.103 16.908 19.46Zm19.896-36.506a23.93 23.93 0 0 1 7.073 17.046 24.022 24.022 0 0 1-7.073 17.047c-4.577 4.563-10.667 7.052-17.097 7.052a24.165 24.165 0 0 1-17.097-7.052C10.4 44.615 7.83 38.543 7.83 32.094s2.534-12.52 7.073-17.046c.378-.377.794-.755 1.21-1.132L10.591 8.41c-.416.377-.794.754-1.21 1.132-2.95 2.941-5.258 6.335-6.847 10.144A31.653 31.653 0 0 0 0 32.094c0 4.3.832 8.486 2.534 12.408 1.627 3.81 3.934 7.203 6.847 10.145 2.95 2.942 6.354 5.242 10.175 6.826A31.908 31.908 0 0 0 32 64c4.312 0 8.51-.83 12.444-2.527a32.585 32.585 0 0 0 10.175-6.826c2.95-2.942 5.258-6.336 6.847-10.145A31.654 31.654 0 0 0 64 32.094c0-4.3-.832-8.485-2.534-12.408-1.627-3.809-3.934-7.203-6.847-10.144a35.45 35.45 0 0 0-1.21-1.132l-5.485 5.506c.416.34.795.717 1.21 1.132ZM32 0c5.523 0 9.986 4.45 9.986 9.956 0 5.507-4.463 9.957-9.986 9.957-5.523 0-9.986-4.45-9.986-9.957C22.014 4.45 26.477 0 32 0Z"/></defs></svg>