<svg width="24" height="24" viewBox="0 0 24 24" version="1.1" xmlns="http://www.w3.org/2000/svg" xmlns:xlink="http://www.w3.org/1999/xlink">
<title>Search</title>
<desc>Created using Figma</desc>
<g id="Canvas" transform="translate(-14982 1313)">
<rect x="14982" y="-1313" width="24" height="24" fill="#E5E5E5"/>
<clipPath id="clip-0" clip-rule="evenodd">
<path d="M 14922 -2573L 16362 -2573L 16362 170L 14922 170L 14922 -2573Z" fill="#FFFFFF"/>
</clipPath>
<g id="404 Error" clip-path="url(#clip-0)">
<path d="M 14922 -2573L 16362 -2573L 16362 170L 14922 170L 14922 -2573Z" fill="#FFFFFF"/>
<g id="Search Field">
<g id="Field">
<g id="Rectangle">
<mask id="mask0_outline_ins">
<use xlink:href="#path0_fill" fill="white" transform="translate(14968 -1328.5)"/>
</mask>
<g mask="url(#mask0_outline_ins)">
<use xlink:href="#path1_stroke_2x" transform="translate(14968 -1328.5)" fill="#6D8799"/>
</g>
</g>
<g id="Search">
<use xlink:href="#path2_fill" transform="translate(14982 -1313)" fill="#6D8799"/>
</g>
</g>
</g>
</g>
</g>
<defs>
<path id="path0_fill" d="M 0 0L 721 0L 721 56L 0 56L 0 0Z"/>
<path id="path1_stroke_2x" d="M 0 0L 0 -1L -1 -1L -1 0L 0 0ZM 721 0L 722 0L 722 -1L 721 -1L 721 0ZM 721 56L 721 57L 722 57L 722 56L 721 56ZM 0 56L -1 56L -1 57L 0 57L 0 56ZM 0 1L 721 1L 721 -1L 0 -1L 0 1ZM 720 0L 720 56L 722 56L 722 0L 720 0ZM 721 55L 0 55L 0 57L 721 57L 721 55ZM 1 56L 1 0L -1 0L -1 56L 1 56Z"/>
<path id="path2_fill" d="M 17.3793 15.1724L 24 22.069L 22.069 24L 15.1724 17.3793L 15.1724 16.2759L 14.8966 15.7241C 13.2414 17.1034 11.3103 17.931 9.10345 17.931C 6.62069 17.931 4.41379 17.1034 2.75862 15.4483C 1.10345 13.7931 0 11.5862 0 9.10345C 0 6.62069 0.827586 4.41379 2.48276 2.75862C 4.13793 1.10345 6.62069 0 9.10345 0C 11.5862 0 13.7931 0.827586 15.4483 2.48276C 17.1034 4.13793 17.931 6.34483 17.931 8.82759C 17.931 11.0345 17.1034 12.9655 15.7241 14.6207L 16 14.8966L 17.3793 14.8966L 17.3793 15.1724ZM 4.68966 13.5172C 5.7931 14.6207 7.44828 15.4483 9.10345 15.4483C 10.7586 15.4483 12.4138 14.8966 13.5172 13.5172C 14.6207 12.1379 15.4483 10.7586 15.4483 9.10345C 15.4483 7.44828 14.6207 5.7931 13.5172 4.68966C 12.4138 3.58621 10.7586 2.75862 9.10345 2.75862C 7.44828 2.75862 5.7931 3.31034 4.68966 4.68966C 3.58621 6.06897 2.75862 7.17241 2.75862 9.10345C 2.75862 11.0345 3.31034 12.1379 4.68966 13.5172Z"/>
</defs>
</svg>
