<svg xmlns="http://www.w3.org/2000/svg" viewBox="0 0 35 46"><g fill="#000" fill-rule="nonzero"><path d="M26.76 33.867H8.295c-1.553 0-1.553 2.5 0 2.5H26.76c1.554 0 1.554-2.5 0-2.5ZM26.76 25.341H8.295c-1.553 0-1.553 2.5 0 2.5H26.76c1.554 0 1.554-2.5 0-2.5ZM26.76 29.382H8.295c-1.553 0-1.553 2.5 0 2.5H26.76c1.554 0 1.554-2.5 0-2.5ZM8.331 11.542c-.664 0-1.199.232-1.199.521v10.705c0 .287.535.521 1.199.521h18.344c.666 0 1.201-.234 1.201-.521V12.063c0-.289-.535-.521-1.201-.521H8.331Z"/><path d="M34.877 0H.18v45.057h34.697V0ZM3.18 42.056V3h28.697l.001 39.056H3.18Z"/></g></svg>