<svg xmlns="http://www.w3.org/2000/svg" viewBox="0 0 32 32"><g fill="#000" fill-rule="nonzero"><path d="M17.993 19.258a3.99 3.99 0 0 0-3.937-3.333H12.06c.294-.118.577-.257.849-.414 3.804.091 5.072-1.121 5.072-1.121-.913-.229-1.389-1.215-1.636-2.144a5.658 5.658 0 0 1-.174-1.904 6.557 6.557 0 1 0-13.074-.016 5.808 5.808 0 0 1-.204 2.036c-.256.893-.729 1.808-1.604 2.026 0 0 1.269 1.212 5.073 1.121.271.157.556.296.849.414H5.214a3.993 3.993 0 0 0-3.936 3.333L.053 26.599a3.847 3.847 0 0 0 3.798 4.483H15.42a3.85 3.85 0 0 0 2.938-1.361 3.853 3.853 0 0 0 .858-3.122l-1.223-7.341ZM5.331 9.813c0-.509.104-.99.267-1.442h8.077c.162.453.266.934.266 1.442a4.305 4.305 0 1 1-8.61 0ZM29.051.564h-9.365a2.594 2.594 0 0 0-2.594 2.594v4.329a2.594 2.594 0 0 0 2.594 2.594h1.034l-2.034 3.379 5.938-3.379h4.428a2.594 2.594 0 0 0 2.595-2.594V3.158A2.598 2.598 0 0 0 29.051.564Z"/></g></svg>