<svg xmlns="http://www.w3.org/2000/svg" viewBox="0 0 61 61"><g fill="#000" fill-rule="nonzero"><path d="M53.617 48.444 40.635 27.595l-9.476 8.312 21.319 18.701 4.817 4.226 1 .876c.879.771 2.202-.215 1.549-1.264l-6.227-10.002ZM2.009 10.336c.642.645 1.367 1.199 2.051 1.799l6.504 5.705 8.507 7.462L29.138 9.13l-1.87-3.003c-.605-.972-.988-1.988-1.868-2.782-1.929-1.74-4.655-2.526-7.16-2.949a28.3 28.3 0 0 0-9.999.101C5.835.962 3.202 1.785 1.412 3.548.774 4.176.26 4.954.087 5.844a3.493 3.493 0 0 0 .072 1.632c.176.613.832 1.838 1.85 2.86Zm8.645-8.172a27.19 27.19 0 0 1 2.868-.147c2.637 0 5.349.324 7.827 1.265 1.29.491 3.135 1.31 3.596 2.759.413 1.298-.942 2.347-1.909 2.916-1.99 1.169-4.375 1.673-6.646 1.913-4.502.475-10.418.183-13.872-3.13-2.88-3.602 6.361-5.388 8.136-5.576ZM55.762 12.33l1.964-1.723c.713-.625 1.281-1.39 1.758-2.21l.007-.013a3.707 3.707 0 0 0 .531-1.867c0-4.33-6.452-5.955-9.706-6.26-4.903-.459-10.763-.349-14.829 2.428-1.334.911-1.897 2.134-2.702 3.426L30.62 9.589 11.931 39.604 3.287 53.487.82 57.45l-.56.9c-.587.943.441 2.276 1.422 1.419 1.667-1.136 3.15-2.763 4.663-4.09L17.858 45.58l28.726-25.198 9.178-8.052ZM35.141 7.113c-.501-1.267.731-2.332 1.689-2.928 1.921-1.196 4.267-1.717 6.487-1.982a27.022 27.022 0 0 1 3.205-.186c2.62 0 5.312.32 7.776 1.248 1.299.489 3.122 1.295 3.621 2.73.709 2.039-2.576 3.404-3.985 3.899-2.241.787-4.652 1.083-7.018 1.12-2.681.042-5.443-.261-7.978-1.173-1.351-.485-3.222-1.278-3.797-2.728Z"/></g></svg>