<svg width="240" height="240" viewBox="0 0 240 240" fill="none" xmlns="http://www.w3.org/2000/svg">
<rect width="240" height="240" rx="48" fill="#3366cc"/>
<path d="M85.1079 64C90.1913 64 94.7906 64.447 98.9864 65.3411C103.142 66.2351 106.733 67.6981 109.718 69.7706C112.663 71.8025 115.003 74.5253 116.657 77.9389C118.271 81.3118 119.078 85.4975 119.078 90.496C119.078 95.9009 117.868 100.371 115.447 103.988C112.986 107.564 109.395 110.531 104.594 112.806C111.13 114.716 115.971 118.049 119.199 122.763C122.427 127.517 124 133.247 124 139.953C124 145.398 122.951 150.071 120.893 153.973C118.796 157.955 115.971 161.166 112.502 163.645C108.992 166.164 104.957 167.993 100.398 169.212C95.9202 170.39 91.2806 171 86.5199 171H35V64H85.1079ZM82.082 107.239C86.2375 107.239 89.6668 106.264 92.3699 104.232C95.073 102.24 96.364 98.9894 96.364 94.5192C96.364 92.0403 95.9202 89.9677 95.073 88.3828C94.1854 86.7979 92.9751 85.5382 91.4823 84.6441C89.9896 83.7501 88.2951 83.0999 86.3182 82.7748C84.3817 82.409 82.3645 82.2465 80.3069 82.2465H58.3998V107.239H82.082ZM83.3731 152.794C85.6727 152.794 87.8917 152.591 89.9492 152.103C92.0471 151.656 93.903 150.925 95.4764 149.828C97.0499 148.812 98.3409 147.349 99.2688 145.561C100.197 143.773 100.681 141.456 100.681 138.611C100.681 133.085 99.1478 129.183 96.0816 126.786C93.0154 124.429 88.9003 123.291 83.8976 123.291H58.3998V152.754H83.3731V152.794Z" fill="white"/>
<path d="M158.469 152.619C161.621 155.721 166.228 157.251 172.169 157.251C176.452 157.251 180.13 156.164 183.241 154.029C186.313 151.894 188.172 149.598 188.899 147.222H207.529C204.538 156.446 199.972 163.051 193.789 167.039C187.646 171.026 180.17 173 171.482 173C165.42 173 159.965 172.033 155.034 170.1C150.145 168.167 146.023 165.428 142.588 161.843C139.234 158.258 136.607 154.029 134.748 149.034C132.889 144.08 132 138.602 132 132.681C132 126.921 132.97 121.564 134.829 116.61C136.769 111.656 139.395 107.346 142.911 103.721C146.427 100.096 150.549 97.2362 155.398 95.1417C160.247 93.0472 165.582 92 171.482 92C177.988 92 183.726 93.2486 188.616 95.7862C193.506 98.2834 197.507 101.707 200.618 105.977C203.77 110.246 205.993 115.08 207.407 120.557C208.781 125.995 209.266 131.715 208.862 137.636H153.216C153.216 143.798 155.277 149.558 158.469 152.619ZM182.757 112.26C180.251 109.481 175.967 107.991 170.795 107.991C167.4 107.991 164.612 108.554 162.389 109.723C160.207 110.85 158.389 112.3 157.015 113.952C155.641 115.643 154.711 117.456 154.186 119.349C153.66 121.202 153.337 122.894 153.216 124.424H187.646C187.161 119.027 185.302 115.08 182.757 112.26Z" fill="white"/>
<path d="M191 72H148V82H191V72Z" fill="white"/>
</svg>
