<svg xmlns="http://www.w3.org/2000/svg" enable-background="new 0 0 256 256" viewBox="0 0 256 256"><path fill="#454444" d="M50.5,12h155C229,12,248,31,248,54.5v147c0,23.5-19,42.5-42.5,42.5h-155C27,244,8,225,8,201.5v-147
					C8,31,27,12,50.5,12z"/><path fill="#fff" d="M50.4 174.9V72.7c0-1 .3-1.5 1-1.6 1.8-.1 4.6-.2 8.4-.2 3.8-.1 7.8-.1 12.2-.2 4.4-.1 8.4-.1 12.1-.1 8.8 0 15.8 1 21 2.9 5.2 1.9 9.2 4.4 12 7.3 2.6 2.6 4.5 5.8 5.6 9.3.9 2.9 1.4 5.8 1.4 8.9.1 3.2-.5 6.4-1.6 9.4-.9 2.5-2.2 4.8-3.9 6.8-1.2 1.6-2.7 2.9-4.3 4 2.3 1.2 4.4 2.7 6.4 4.4 2.5 2.2 4.6 5 6 8 1.8 3.9 2.7 8.1 2.6 12.4.1 6.1-1.8 12.1-5.4 17.1-3.6 4.9-8.7 8.8-15.5 11.5-6.7 2.7-14.7 4.1-24.1 4.1H73.7c-3.4 0-6.5 0-9.3-.1-2.8-.1-5.3-.1-7.4-.2-2.1-.1-3.9-.1-5.4-.1C50.8 176.3 50.4 175.8 50.4 174.9zM72.1 89.8v22.4h10.9c2.9 0 5.7.1 8.5.2 2 0 4 .2 6 .6 1.4-1.2 2.6-2.7 3.5-4.3 1-2 1.4-4.2 1.4-6.4.1-2.5-.6-5-2.1-7.1-1.6-1.9-3.7-3.4-6-4.1-3.3-1-6.7-1.5-10.1-1.4h-4.7c-1.4 0-2.7 0-3.8.1C74.6 89.7 73.4 89.8 72.1 89.8zM72.1 131.1v26.6c1.8.1 3.6.2 5.5.2 1.8.1 4 .1 6.6.1 3.9.1 7.9-.4 11.7-1.4 2.9-.7 5.6-2.3 7.6-4.5 1.7-2.1 2.7-4.8 2.6-7.6.1-2.7-.7-5.3-2.1-7.6-1.4-2.1-4-3.7-7.7-4.7-1.5-.4-2.9-.6-4.4-.8-2-.2-3.9-.3-5.9-.3L72.1 131.1zM162.3 142.3c.4 3 1.4 5.9 3.1 8.5 1.8 2.7 4.3 4.8 7.3 6 3.3 1.5 7.5 2.3 12.8 2.3 3.5 0 7-.3 10.4-.9 3.2-.6 6.4-1.5 9.4-2.8.5-.4.8-.2.8.8v15.3c0 .4-.1.8-.2 1.2-.2.3-.4.5-.7.7-3.3 1.6-6.8 2.7-10.5 3.5-4.7.9-9.4 1.3-14.2 1.2-7.6 0-14-1.2-19.2-3.5-4.9-2.1-9.2-5.4-12.6-9.5-3.2-3.9-5.5-8.3-6.9-13.1-1.4-4.7-2.1-9.6-2.1-14.6 0-5.4.8-10.7 2.5-15.9 1.6-5 4.1-9.6 7.5-13.7 3.3-4 7.4-7.2 12.1-9.5 5.2-2.4 11-3.6 16.7-3.5 5.3-.1 10.6.9 15.5 3.1 4.1 1.9 7.8 4.7 10.5 8.3 2.6 3.4 4.7 7.2 6 11.4 1.3 4 1.9 8.1 1.9 12.2 0 2.4-.1 4.5-.2 6.4-.2 1.9-.5 3.9-.6 4.8-.1.7-.7 1.3-1.4 1.3C209.6 142.2 162.3 142.3 162.3 142.3zM162.3 126.6h21.1c2.6 0 4.5 0 5.7-.1.8 0 1.6-.1 2.3-.2v-1c0-1.3-.2-2.5-.6-3.7-1.8-5.6-7.1-9.4-13-9.2-5.5-.3-10.7 2.6-13.3 7.6C163.4 122.1 162.6 124.3 162.3 126.6zM152.2 67.6h48.1c.8 0 1.1.4 1.1 1.3v13.1c.1.6-.3 1.2-1 1.3-.1 0-.2 0-.3 0H152c-.8 0-1.1-.4-1.1-1.3V68.7C150.9 68 151.3 67.6 152.2 67.6z"/></svg>
