<svg width="145" height="106" viewBox="0 0 145 106" version="1.1" xmlns="http://www.w3.org/2000/svg" xmlns:xlink="http://www.w3.org/1999/xlink">
<title>Vector</title>
<desc>Created using Figma</desc>
<g id="Canvas" transform="translate(9347 1628)">
<rect x="-9347" y="-1628" width="145" height="106" fill="#E5E5E5"/>
<clipPath id="clip-0" clip-rule="evenodd">
<path d="M -9387 -2573L -7947 -2573L -7947 7840L -9387 7840L -9387 -2573Z" fill="#FFFFFF"/>
</clipPath>
<g id="Home Page" clip-path="url(#clip-0)">
<path d="M -9387 -2573L -7947 -2573L -7947 7840L -9387 7840L -9387 -2573Z" fill="#FFFFFF"/>
<g id="C01 - Intro Copy">
</g>
<g id="Primary nav">
<g id="Stacked Logo">
<g id="Vector">
<use xlink:href="#path0_fill" transform="translate(-9347 -1628)"/>
</g>
</g>
</g>
</g>
</g>
<defs>
<path id="path0_fill" d="M 7.62449 81.9481L 10.6963 71.947L 14.7227 71.947L 17.7701 81.9481L 21.2091 71.947L 25.3946 71.947L 19.3488 89.3355L 16.4851 89.3355L 12.6912 77.2359L 8.92176 89.3355L 6.05798 89.3355L 0 71.9347L 4.18552 71.9347L 7.62449 81.9481ZM 27.4996 71.9347L 31.3791 71.9347L 31.3791 89.3232L 27.4996 89.3232L 27.4996 71.9347ZM 35.6381 71.9347L 39.5176 71.9347L 39.5176 79.0889L 46.0529 71.9347L 50.8381 71.9347L 43.9357 79.6289C 44.5354 80.4633 45.6368 82.0095 47.24 84.2674C 48.8433 86.5254 50.0304 88.2065 50.8381 89.3232L 46.3099 89.3232L 41.2432 82.4513L 39.5176 84.3901L 39.5176 89.311L 35.6381 89.311L 35.6381 71.9347ZM 53.2368 71.9347L 57.1164 71.9347L 57.1164 89.3232L 53.2368 89.3232L 53.2368 71.9347ZM 76.9058 78.3894L 72.2308 87.8997L 69.9055 87.8997L 65.2549 78.3894L 65.2549 89.3232L 61.3753 89.3232L 61.3753 71.9347L 66.6256 71.9347L 71.0926 81.4941L 75.5841 71.9347L 80.8098 71.9347L 80.8098 89.3232L 76.9303 89.3232L 76.9303 78.3894L 76.9058 78.3894ZM 97.5641 71.9347L 97.5641 75.383L 88.9361 75.383L 88.9361 78.9539L 96.683 78.9539L 96.683 82.2672L 88.9239 82.2672L 88.9239 85.875L 97.8089 85.875L 97.8089 89.2987L 85.0443 89.2987L 85.0443 71.9102L 97.5519 71.9102L 97.5641 71.9347ZM 114.514 74.2172C 116.166 75.7511 116.999 77.8495 116.999 80.5369C 116.999 83.2244 116.203 85.3841 114.563 86.9671C 112.96 88.5501 110.476 89.3232 107.171 89.3232L 101.248 89.3232L 101.248 71.9347L 107.367 71.9347C 110.512 71.9347 112.862 72.7201 114.514 74.2172ZM 111.675 84.5619C 112.63 83.6539 113.095 82.3531 113.095 80.6474C 113.095 78.9417 112.63 77.6163 111.675 76.7083C 110.72 75.7756 109.276 75.3339 107.306 75.3339L 105.127 75.3339L 105.127 85.9118L 107.587 85.9118C 109.374 85.9118 110.745 85.47 111.675 84.5619ZM 120.352 71.9347L 124.232 71.9347L 124.232 89.3232L 120.352 89.3232L 120.352 71.9347ZM 140.851 89.3232L 139.248 85.5682L 131.991 85.5682L 130.387 89.3232L 126.275 89.3232L 133.765 71.9347L 137.51 71.9347L 145 89.3232L 140.851 89.3232ZM 135.601 77.1255L 133.435 82.1813L 137.779 82.1813L 135.601 77.1255ZM 16.9991 99.8275L 16.9991 101.828L 20.2055 101.828L 20.2055 102.969L 16.9991 102.969L 16.9991 105.951L 15.7875 105.951L 15.7875 98.6985L 20.5971 98.6985L 20.5971 99.8398L 16.9991 99.8398L 16.9991 99.8275ZM 32.7131 104.932C 31.9911 105.656 31.0854 106 29.9962 106C 28.907 106 28.0013 105.632 27.2793 104.932C 26.5572 104.208 26.1901 103.325 26.1901 102.257C 26.1901 101.19 26.5572 100.294 27.2793 99.5821C 28.0013 98.8581 28.907 98.5145 29.9962 98.5145C 31.0854 98.5145 31.9911 98.8826 32.7131 99.5821C 33.4352 100.306 33.8023 101.19 33.8023 102.257C 33.8023 103.325 33.4597 104.208 32.7131 104.932ZM 31.832 100.392C 31.3424 99.8766 30.7427 99.6189 30.0207 99.6189C 29.2986 99.6189 28.6989 99.8766 28.2094 100.392C 27.7199 100.907 27.4629 101.533 27.4629 102.257C 27.4629 102.981 27.7199 103.607 28.2094 104.122C 28.6989 104.638 29.2986 104.896 30.0207 104.896C 30.7427 104.896 31.3424 104.638 31.832 104.122C 32.3215 103.607 32.5785 102.981 32.5785 102.257C 32.5907 101.533 32.3215 100.883 31.832 100.392ZM 41.6349 104.257C 41.9653 104.65 42.4059 104.822 42.9811 104.822C 43.5563 104.822 43.9846 104.638 44.3273 104.257C 44.6577 103.865 44.8168 103.349 44.8168 102.674L 44.8168 98.6617L 46.0284 98.6617L 46.0284 102.736C 46.0284 103.767 45.747 104.577 45.1718 105.141C 44.6088 105.705 43.85 106 42.9689 106C 42.0632 106 41.3412 105.718 40.7659 105.141C 40.203 104.577 39.9093 103.767 39.9093 102.736L 39.9093 98.6617L 41.1209 98.6617L 41.1209 102.674C 41.1453 103.349 41.2922 103.865 41.6349 104.257ZM 58.022 98.6863L 59.2336 98.6863L 59.2336 105.939L 57.9119 105.939L 53.8243 100.65L 53.8243 105.939L 52.6127 105.939L 52.6127 98.6863L 53.8243 98.6863L 58.0098 104.098L 58.022 98.6863ZM 71.3496 99.6189C 72.0472 100.245 72.3776 101.116 72.3776 102.257C 72.3776 103.374 72.0472 104.282 71.3741 104.932C 70.701 105.583 69.6729 105.914 68.2778 105.914L 65.879 105.914L 65.879 98.6617L 68.3634 98.6617C 69.6729 98.6863 70.6765 98.9931 71.3496 99.6189ZM 71.166 102.282C 71.166 100.625 70.2114 99.7907 68.3267 99.7907L 67.1151 99.7907L 67.1151 104.761L 68.4613 104.761C 69.3425 104.761 70.0156 104.552 70.4807 104.135C 70.9335 103.742 71.166 103.116 71.166 102.282ZM 79.6472 104.282L 78.9251 105.939L 77.6279 105.939L 80.8098 98.6863L 82.1071 98.6863L 85.2891 105.939L 83.9918 105.939L 83.2698 104.282L 79.6472 104.282ZM 82.7802 103.141L 81.4585 100.159L 80.1367 103.141L 82.7802 103.141ZM 93.1094 99.803L 93.1094 105.914L 91.8978 105.914L 91.8978 99.803L 89.6949 99.803L 89.6949 98.6863L 95.3 98.6863L 95.3 99.803L 93.1094 99.803ZM 101.285 98.6863L 102.496 98.6863L 102.496 105.939L 101.285 105.939L 101.285 98.6863ZM 115.212 104.932C 114.49 105.656 113.584 106 112.495 106C 111.406 106 110.5 105.632 109.778 104.932C 109.056 104.208 108.689 103.325 108.689 102.257C 108.689 101.19 109.056 100.294 109.778 99.5821C 110.5 98.8703 111.406 98.5145 112.495 98.5145C 113.584 98.5145 114.49 98.8826 115.212 99.5821C 115.934 100.306 116.301 101.19 116.301 102.257C 116.301 103.325 115.934 104.208 115.212 104.932ZM 114.306 100.392C 113.817 99.8766 113.217 99.6189 112.495 99.6189C 111.773 99.6189 111.173 99.8766 110.684 100.392C 110.194 100.907 109.937 101.533 109.937 102.257C 109.937 102.981 110.194 103.607 110.684 104.122C 111.173 104.638 111.773 104.896 112.495 104.896C 113.217 104.896 113.817 104.638 114.306 104.122C 114.796 103.607 115.053 102.981 115.053 102.257C 115.053 101.533 114.796 100.883 114.306 100.392ZM 127.903 98.6863L 129.115 98.6863L 129.115 105.939L 127.793 105.939L 123.705 100.65L 123.705 105.939L 122.494 105.939L 122.494 98.6863L 123.705 98.6863L 127.891 104.098L 127.891 98.6863L 127.903 98.6863ZM 75.1557 50.3248C 84.4324 48.9995 91.5674 41.0232 91.5674 31.3288C 91.5674 25.4508 88.9361 20.1864 84.7751 16.689L 75.1312 26.3589L 75.1312 50.3248L 75.1557 50.3248ZM 69.7464 50.3248L 69.7464 26.3589L 60.1025 16.689C 55.9415 20.2109 53.3103 25.4753 53.3103 31.3288C 53.3347 40.9986 60.4697 48.9995 69.7464 50.3248ZM 89.083 14.6643C 93.5255 19.1188 95.9609 25.0336 95.9609 31.3288C 95.9609 37.624 93.501 43.5388 89.083 47.9933C 84.6404 52.4478 78.7416 54.8898 72.4633 54.8898C 66.185 54.8898 60.2861 52.4232 55.8436 47.9933C 51.4011 43.5633 48.9656 37.624 48.9656 31.3288C 48.9656 25.0336 51.4256 19.1188 55.8436 14.6643C 56.2352 14.2716 56.6146 13.9157 57.0062 13.5721L 51.6336 8.185C 51.242 8.55314 50.8626 8.90901 50.471 9.30169C 47.6317 12.1486 45.3798 15.4987 43.8011 19.2047C 42.1734 23.0456 41.3412 27.132 41.3412 31.3288C 41.3412 35.5256 42.1734 39.6242 43.8011 43.4529C 45.3798 47.1588 47.595 50.4966 50.471 53.3559C 53.3103 56.2028 56.6513 58.4608 60.3473 60.0438C 64.1779 61.6758 68.2533 62.5103 72.4388 62.5103C 76.6243 62.5103 80.7119 61.6758 84.5303 60.0438C 88.2263 58.4608 91.5551 56.2396 94.4066 53.3559C 97.2459 50.5089 99.4978 47.1588 101.077 43.4529C 102.704 39.6119 103.536 35.5256 103.536 31.3288C 103.536 27.132 102.704 23.0333 101.077 19.2047C 99.4978 15.4987 97.2827 12.1609 94.4066 9.30169C 94.015 8.90901 93.6356 8.55314 93.244 8.185L 87.8714 13.5844C 88.312 13.9157 88.6913 14.2839 89.083 14.6643ZM 72.4633 0C 77.8114 0 82.1561 4.35633 82.1561 9.71892C 82.1561 15.0815 77.8114 19.4378 72.4633 19.4378C 67.1151 19.4378 62.7705 15.0815 62.7705 9.71892C 62.7705 4.35633 67.1151 0 72.4633 0Z"/>
</defs>
</svg>
