<svg width="500" height="500" xmlns="http://www.w3.org/2000/svg"><path d="M437.589 52c34.922 0 62.975 27.49 62.402 62.427v198.375c0 34.363-28.052 62.427-62.402 62.427h-210.06l-.934 58.876c-1.592 17.047-12.137 17.143-22.9 8.591l-61.142-67.467h-80.15C28.053 375.229 0 347.165 0 312.802V114.427C0 79.491 28.053 52 62.403 52zm-251.644 81.667c-4.989 0-9.545.367-13.669 1.102l-.768.143-35.57 85.48-34.524-85.48c-5.3-.83-10.67-1.245-16.111-1.245-4.792 0-9.765.357-14.919 1.073l-1.192.172-5.859 149.176c4.743.83 9.346 1.245 13.81 1.245 3.886 0 7.892-.357 12.018-1.073l.954-.172 2.93-102.701 28.456 71.58c1.953.415 3.836.691 5.65.83 1.812.138 3.626.207 5.44.207 2.092 0 4.184-.104 6.276-.311a148.84 148.84 0 004.888-.564l1.18-.162 30.548-70.128 3.767 101.25a78.851 78.851 0 0014.018 1.244c4.427 0 9.096-.361 14.009-1.084l1.056-.16-7.114-149.177c-4.882-.83-9.973-1.245-15.274-1.245zm68.921 0c-4.407 0-8.994.36-13.762 1.082l-1.104.173v150.411h82.286c.42-2.37.698-4.637.838-6.799.14-2.161.21-4.358.21-6.59 0-1.952-.07-4.009-.21-6.17a60.975 60.975 0 00-.687-5.915l-.15-.884H270.15V134.922c-5.305-.837-10.4-1.255-15.285-1.255zM386.162 132c-6.722 0-13.375.174-19.958.52-5.642.298-11.233.673-16.772 1.123l-2.765.232v150.417a86.26 86.26 0 008.193.833c2.661.139 5.112.208 7.353.208 2.38 0 4.832-.07 7.353-.208a77.057 77.057 0 006.778-.684l.995-.15v-48.124c1.4.139 2.906.243 4.517.312 1.61.07 3.326.104 5.147.104 6.863 0 13.83-.694 20.903-2.083 7.073-1.389 13.48-4.028 19.223-7.917 5.742-3.889 10.434-9.201 14.075-15.937 3.642-6.736 5.463-15.521 5.463-26.354 0-10.834-1.821-19.653-5.463-26.459-3.641-6.805-8.368-12.118-14.18-15.937-5.813-3.82-12.325-6.424-19.538-7.813-7.213-1.389-14.32-2.083-21.324-2.083zm.727 26.667c3.55 0 7.028.444 10.435 1.333 3.407.889 6.424 2.393 9.051 4.513s4.72 4.923 6.282 8.41c1.562 3.487 2.343 7.76 2.343 12.82 0 4.924-.78 9.06-2.343 12.41-1.561 3.351-3.655 6.052-6.282 8.103-2.627 2.052-5.644 3.522-9.05 4.41A41.17 41.17 0 01386.888 212h-5.43c-1.305 0-2.691-.105-4.158-.314l-.634-.096v-52.308c2.555-.273 4.507-.444 5.856-.513a86.552 86.552 0 014.366-.102z" fill="#FFF" fill-rule="nonzero"/></svg>
