<svg width="106" height="61" viewBox="0 0 106 61" fill="none" xmlns="http://www.w3.org/2000/svg">
<path d="M1.98253 2.87167C-4.27747 19.6317 10.9525 40.0017 27.0025 44.5117C41.8025 48.6717 61.7725 37.9817 56.9025 20.4117C52.7425 5.43171 29.6825 5.57171 26.5425 21.1617C23.2125 37.6817 39.2825 53.3117 53.5925 58.0217C72.2725 64.1617 94.1025 55.9917 104.603 39.4917C106.643 36.2817 101.333 34.3017 99.3125 36.7517C89.1925 49.0517 73.6825 57.1717 57.6025 52.2817C50.5025 50.1217 44.1125 45.7617 39.5625 39.8917C35.4125 34.5317 30.1425 24.0317 35.3325 17.8417C40.4225 11.7717 49.3625 17.6017 50.2425 24.0417C51.4325 32.7117 44.0825 39.0017 35.9425 39.2417C19.7825 39.7117 3.34253 19.0517 8.54253 3.56167C9.88253 -0.41833 3.24253 -0.488333 1.98253 2.87167Z" fill="#F0BC00"/>
</svg>
