<svg width="179" height="131" viewBox="0 0 179 131" version="1.1" xmlns="http://www.w3.org/2000/svg" xmlns:xlink="http://www.w3.org/1999/xlink">
<title>Stacked Logo</title>
<g id="Canvas" transform="translate(1963 17176)">
<g id="Stacked Logo">
<g id="Vector">
<use xlink:href="#path0_fill" transform="translate(-1963 -17176)"/>
</g>
</g>
</g>
<defs>
<path id="path0_fill" d="M 9.41231 101.276L 13.2044 88.9156L 18.175 88.9156L 21.9369 101.276L 26.1822 88.9156L 31.3492 88.9156L 23.8858 110.405L 20.3505 110.405L 15.667 95.452L 11.0138 110.405L 7.47848 110.405L 0 88.9004L 5.16695 88.9004L 9.41231 101.276ZM 33.9478 88.9004L 38.737 88.9004L 38.737 110.39L 33.9478 110.39L 33.9478 88.9004ZM 43.9946 88.9004L 48.7838 88.9004L 48.7838 97.742L 56.8515 88.9004L 62.7588 88.9004L 54.2378 98.4092C 54.9781 99.4405 56.3379 101.351 58.317 104.142C 60.2962 106.932 61.7616 109.01 62.7588 110.39L 57.1688 110.39L 50.9141 101.897L 48.7838 104.293L 48.7838 110.375L 43.9946 110.375L 43.9946 88.9004ZM 65.7199 88.9004L 70.5092 88.9004L 70.5092 110.39L 65.7199 110.39L 65.7199 88.9004ZM 94.9389 96.8775L 89.1676 108.631L 86.2971 108.631L 80.556 96.8775L 80.556 110.39L 75.7668 110.39L 75.7668 88.9004L 82.2481 88.9004L 87.7626 100.714L 93.3072 88.9004L 99.7583 88.9004L 99.7583 110.39L 94.9691 110.39L 94.9691 96.8775L 94.9389 96.8775ZM 120.441 88.9004L 120.441 93.162L 109.79 93.162L 109.79 97.5751L 119.353 97.5751L 119.353 101.67L 109.775 101.67L 109.775 106.129L 120.743 106.129L 120.743 110.36L 104.986 110.36L 104.986 88.8701L 120.426 88.8701L 120.441 88.9004ZM 141.366 91.7212C 143.405 93.6169 144.433 96.2102 144.433 99.5315C 144.433 102.853 143.451 105.522 141.426 107.478C 139.447 109.435 136.38 110.39 132.301 110.39L 124.989 110.39L 124.989 88.9004L 132.543 88.9004C 136.426 88.9004 139.326 89.871 141.366 91.7212ZM 137.861 104.506C 139.039 103.384 139.613 101.776 139.613 99.668C 139.613 97.56 139.039 95.9221 137.861 94.7998C 136.682 93.6473 134.9 93.1013 132.467 93.1013L 129.778 93.1013L 129.778 106.174L 132.815 106.174C 135.021 106.174 136.713 105.628 137.861 104.506ZM 148.572 88.9004L 153.362 88.9004L 153.362 110.39L 148.572 110.39L 148.572 88.9004ZM 173.878 110.39L 171.899 105.749L 162.94 105.749L 160.961 110.39L 155.885 110.39L 165.131 88.9004L 169.754 88.9004L 179 110.39L 173.878 110.39ZM 167.397 95.3155L 164.723 101.564L 170.086 101.564L 167.397 95.3155ZM 20.9851 123.372L 20.9851 125.844L 24.9434 125.844L 24.9434 127.254L 20.9851 127.254L 20.9851 130.939L 19.4894 130.939L 19.4894 121.977L 25.4268 121.977L 25.4268 123.387L 20.9851 123.387L 20.9851 123.372ZM 40.3838 129.681C 39.4924 130.575 38.3744 131 37.0298 131C 35.6852 131 34.5672 130.545 33.6758 129.681C 32.7844 128.786 32.3312 127.694 32.3312 126.375C 32.3312 125.055 32.7844 123.948 33.6758 123.068C 34.5672 122.174 35.6852 121.749 37.0298 121.749C 38.3744 121.749 39.4924 122.204 40.3838 123.068C 41.2752 123.963 41.7284 125.055 41.7284 126.375C 41.7284 127.694 41.3054 128.786 40.3838 129.681ZM 39.296 124.069C 38.6917 123.432 37.9514 123.114 37.06 123.114C 36.1686 123.114 35.4283 123.432 34.824 124.069C 34.2197 124.706 33.9024 125.48 33.9024 126.375C 33.9024 127.269 34.2197 128.043 34.824 128.68C 35.4283 129.317 36.1686 129.635 37.06 129.635C 37.9514 129.635 38.6917 129.317 39.296 128.68C 39.9003 128.043 40.2176 127.269 40.2176 126.375C 40.2327 125.48 39.9003 124.676 39.296 124.069ZM 51.3975 128.846C 51.8055 129.332 52.3493 129.544 53.0594 129.544C 53.7695 129.544 54.2983 129.317 54.7213 128.846C 55.1292 128.361 55.3256 127.724 55.3256 126.89L 55.3256 121.931L 56.8213 121.931L 56.8213 126.966C 56.8213 128.24 56.4738 129.241 55.7638 129.938C 55.0688 130.636 54.1321 131 53.0443 131C 51.9263 131 51.0349 130.651 50.3249 129.938C 49.6299 129.241 49.2673 128.24 49.2673 126.966L 49.2673 121.931L 50.763 121.931L 50.763 126.89C 50.7932 127.724 50.9745 128.361 51.3975 128.846ZM 71.6272 121.961L 73.1229 121.961L 73.1229 130.924L 71.4912 130.924L 66.4451 124.388L 66.4451 130.924L 64.9494 130.924L 64.9494 121.961L 66.4451 121.961L 71.6121 128.649L 71.6272 121.961ZM 88.0798 123.114C 88.941 123.887 89.3489 124.964 89.3489 126.375C 89.3489 127.755 88.941 128.877 88.1101 129.681C 87.2791 130.484 86.01 130.894 84.2877 130.894L 81.3265 130.894L 81.3265 121.931L 84.3935 121.931C 86.01 121.961 87.2489 122.34 88.0798 123.114ZM 87.8532 126.405C 87.8532 124.357 86.6748 123.326 84.3482 123.326L 82.8525 123.326L 82.8525 129.468L 84.5144 129.468C 85.6021 129.468 86.4331 129.21 87.0072 128.695C 87.5662 128.21 87.8532 127.436 87.8532 126.405ZM 98.3231 128.877L 97.4317 130.924L 95.8303 130.924L 99.7583 121.961L 101.36 121.961L 105.288 130.924L 103.686 130.924L 102.795 128.877L 98.3231 128.877ZM 102.191 127.466L 100.559 123.781L 98.9274 127.466L 102.191 127.466ZM 114.942 123.341L 114.942 130.894L 113.446 130.894L 113.446 123.341L 110.727 123.341L 110.727 121.961L 117.646 121.961L 117.646 123.341L 114.942 123.341ZM 125.034 121.961L 126.53 121.961L 126.53 130.924L 125.034 130.924L 125.034 121.961ZM 142.227 129.681C 141.336 130.575 140.218 131 138.873 131C 137.528 131 136.41 130.545 135.519 129.681C 134.628 128.786 134.174 127.694 134.174 126.375C 134.174 125.055 134.628 123.948 135.519 123.068C 136.41 122.189 137.528 121.749 138.873 121.749C 140.218 121.749 141.336 122.204 142.227 123.068C 143.118 123.963 143.572 125.055 143.572 126.375C 143.572 127.694 143.118 128.786 142.227 129.681ZM 141.109 124.069C 140.505 123.432 139.764 123.114 138.873 123.114C 137.982 123.114 137.241 123.432 136.637 124.069C 136.033 124.706 135.715 125.48 135.715 126.375C 135.715 127.269 136.033 128.043 136.637 128.68C 137.241 129.317 137.982 129.635 138.873 129.635C 139.764 129.635 140.505 129.317 141.109 128.68C 141.713 128.043 142.031 127.269 142.031 126.375C 142.031 125.48 141.713 124.676 141.109 124.069ZM 157.894 121.961L 159.39 121.961L 159.39 130.924L 157.758 130.924L 152.712 124.388L 152.712 130.924L 151.216 130.924L 151.216 121.961L 152.712 121.961L 157.879 128.649L 157.879 121.961L 157.894 121.961ZM 92.7784 62.1939C 104.23 60.556 113.038 50.6984 113.038 38.7176C 113.038 31.4533 109.79 24.9473 104.653 20.6251L 92.7482 32.5756L 92.7482 62.1939L 92.7784 62.1939ZM 86.1007 62.1939L 86.1007 32.5756L 74.1956 20.6251C 69.0588 24.9777 65.8106 31.4837 65.8106 38.7176C 65.8408 50.6681 74.6488 60.556 86.1007 62.1939ZM 109.971 18.1228C 115.456 23.6279 118.462 30.9377 118.462 38.7176C 118.462 46.4976 115.425 53.8074 109.971 59.3125C 104.487 64.8176 97.2051 67.8355 89.4547 67.8355C 81.7042 67.8355 74.4222 64.7872 68.938 59.3125C 63.4537 53.8377 60.4472 46.4976 60.4472 38.7176C 60.4472 30.9377 63.484 23.6279 68.938 18.1228C 69.4214 17.6375 69.8898 17.1977 70.3732 16.7731L 63.7408 10.1154C 63.2573 10.5704 62.789 11.0102 62.3055 11.4955C 58.8005 15.0139 56.0206 19.1541 54.0717 23.7341C 52.0623 28.4809 51.0349 33.531 51.0349 38.7176C 51.0349 43.9043 52.0623 48.9696 54.0717 53.7012C 56.0206 58.2812 58.7551 62.4062 62.3055 65.9398C 65.8106 69.4582 69.9351 72.2487 74.4977 74.205C 79.2265 76.222 84.2575 77.2533 89.4245 77.2533C 94.5914 77.2533 99.6375 76.222 104.351 74.205C 108.914 72.2487 113.023 69.5037 116.543 65.9398C 120.048 62.4214 122.828 58.2812 124.777 53.7012C 126.787 48.9544 127.814 43.9043 127.814 38.7176C 127.814 33.531 126.787 28.4657 124.777 23.7341C 122.828 19.1541 120.094 15.0291 116.543 11.4955C 116.06 11.0102 115.592 10.5704 115.108 10.1154L 108.476 16.7883C 109.02 17.1977 109.488 17.6527 109.971 18.1228ZM 89.4547 0C 96.0569 0 101.42 5.38377 101.42 12.0111C 101.42 18.6385 96.0569 24.0222 89.4547 24.0222C 82.8525 24.0222 77.4891 18.6385 77.4891 12.0111C 77.4891 5.38377 82.8525 0 89.4547 0Z"/>
</defs>
</svg>
