<?xml version="1.0" encoding="utf-8"?><!DOCTYPE svg PUBLIC "-//W3C//DTD SVG 1.1//EN" "http://www.w3.org/Graphics/SVG/1.1/DTD/svg11.dtd"><svg xmlns="http://www.w3.org/2000/svg" xmlns:xlink="http://www.w3.org/1999/xlink"><symbol viewBox="0 0 24 24" id="arrow-back" xmlns="http://www.w3.org/2000/svg"><path d="M20 11H7.83l5.59-5.59L12 4l-8 8 8 8 1.41-1.41L7.83 13H20v-2z"/></symbol><symbol viewBox="0 0 20 20" id="close" xmlns="http://www.w3.org/2000/svg"><path d="M4.34 2.93l12.73 12.73-1.41 1.41L2.93 4.35z"/><path d="M17.07 4.34L4.34 17.07l-1.41-1.41L15.66 2.93z"/></symbol><symbol fill="none" viewBox="0 0 20 20" id="contact" xmlns="http://www.w3.org/2000/svg"><path fill-rule="evenodd" clip-rule="evenodd" d="M14.5 5.5a4.5 4.5 0 11-9 0 4.5 4.5 0 019 0zM2 16c0-2 2.083-5 8-5s8 3 8 5v3H2v-3z" fill="#000"/></symbol><symbol viewBox="0 0 20 20" id="downTriangle" xmlns="http://www.w3.org/2000/svg"><path d="M10 15L2 5h16l-8 10z"/></symbol><symbol viewBox="0 0 24 24" id="download" xmlns="http://www.w3.org/2000/svg"><path d="M19 9h-4V3H9v6H5l7 7 7-7zM5 18v2h14v-2H5z"/></symbol><symbol fill="none" viewBox="0 0 20 20" id="email" xmlns="http://www.w3.org/2000/svg"><path fill-rule="evenodd" clip-rule="evenodd" d="M2 2h16a2 2 0 012 2v2l-10 4L0 6V4a2 2 0 012-2zm0 16a2 2 0 01-2-2V8l10 4 10-4v8a2 2 0 01-2 2H2z" fill="#000"/></symbol><symbol fill="none" viewBox="0 0 14 14" id="heart" xmlns="http://www.w3.org/2000/svg"><path fill-rule="evenodd" clip-rule="evenodd" d="M10.325.7A3.67 3.67 0 007 2.831a3.668 3.668 0 00-7 1.544C0 8.225 7 13.3 7 13.3s7-5.075 7-8.925A3.675 3.675 0 0010.325.7z" fill="currentColor"/></symbol><symbol viewBox="0 0 24 24" id="image" xmlns="http://www.w3.org/2000/svg"><path d="M21 19V5c0-1.1-.9-2-2-2H5c-1.1 0-2 .9-2 2v14c0 1.1.9 2 2 2h14c1.1 0 2-.9 2-2zM8.5 13.5l2.5 3.01L14.5 12l4.5 6H5l3.5-4.5z"/></symbol><symbol fill="none" viewBox="0 0 14 14" id="lock" xmlns="http://www.w3.org/2000/svg"><path fill-rule="evenodd" clip-rule="evenodd" d="M11.25 5.6h-.75V3.5S10.5 0 7 0 3.5 3.5 3.5 3.5v2.1h-.749a1.35 1.35 0 00-1.35 1.351v5.705A1.351 1.351 0 002.75 14h8.498c.746 0 1.351-.605 1.351-1.351V6.951a1.35 1.35 0 00-1.35-1.351zM4.9 3.85C4.9 2.8 4.9 1.4 7 1.4s2.1 1.4 2.1 2.45V5.6H4.9V3.85zM7 11.2a1.4 1.4 0 110-2.8 1.4 1.4 0 010 2.8z" fill="currentColor"/></symbol><symbol viewBox="0 0 279 62" id="logo-horizontal" xmlns="http://www.w3.org/2000/svg"><use xlink:href="#aja"/><path id="aja" d="M83.46 25.83l4.378-14.102h5.738l4.34 14.102 4.893-14.102h5.959l-8.608 24.515h-4.082L90.67 19.18 85.3 36.243h-4.083L72.61 11.728h5.959L83.46 25.83zm28.287-14.102h5.518v24.515h-5.518V11.728zm11.587 0h5.517V21.81l9.306-10.083h6.805l-9.821 10.85c.846 1.17 2.428 3.362 4.708 6.54 2.281 3.179 3.973 5.554 5.113 7.125h-6.437l-7.246-9.682-2.464 2.74v6.942h-5.518V11.728h.037zm25.049 0h5.518v24.515h-5.518V11.728zm33.693 9.097l-6.657 13.408h-3.274l-6.621-13.408v15.418h-5.517V11.728h7.467l6.363 13.481 6.4-13.481h7.431v24.515h-5.518V20.825h-.074zm29.39-9.097v4.859h-12.285v5.078h11.035v4.677h-11.035v5.078h12.69v4.823H193.7V11.728h17.766zm24.13 3.215c2.354 2.155 3.531 5.115 3.531 8.914 0 3.8-1.14 6.832-3.458 9.061-2.28 2.229-5.811 3.325-10.52 3.325h-8.423V11.728h8.718c4.451 0 7.798 1.096 10.152 3.215zm-4.009 14.577c1.361-1.278 2.023-3.105 2.023-5.517 0-2.41-.662-4.274-2.023-5.553-1.361-1.315-3.421-1.936-6.217-1.936h-3.09V31.42h3.495c2.501 0 4.451-.62 5.812-1.9zm12.322-17.792h5.517v24.515h-5.517V11.728zm29.169 24.515l-2.281-5.298h-10.336l-2.28 5.298h-5.849l10.667-24.515h5.334L279 36.243h-5.922zm-7.467-17.208l-3.09 7.124h6.18l-3.09-7.124zM82.651 47.386v2.96h4.782v1.68h-4.781v4.42h-1.84v-10.74h7.21v1.68h-5.37zm25.822 7.526c-1.103 1.06-2.427 1.571-4.046 1.571-1.618 0-2.942-.511-4.046-1.57-1.103-1.06-1.655-2.376-1.655-3.947 0-1.57.552-2.886 1.655-3.945 1.104-1.06 2.428-1.571 4.046-1.571 1.619 0 2.943.511 4.046 1.57 1.104 1.06 1.656 2.375 1.656 3.946 0 1.571-.552 2.887-1.656 3.946zm-1.324-6.686c-.735-.767-1.655-1.132-2.722-1.132-1.066 0-1.986.365-2.722 1.132a3.825 3.825 0 00-1.103 2.74c0 1.096.368 2.01 1.103 2.74.736.731 1.656 1.133 2.722 1.133 1.067 0 1.987-.365 2.722-1.133a3.822 3.822 0 001.104-2.74c0-1.096-.368-2.009-1.104-2.74zm16.957 5.736c.478.585 1.177.877 2.023.877.846 0 1.508-.292 2.023-.877.515-.584.736-1.352.736-2.338v-5.955h1.839v6.028c0 1.535-.441 2.74-1.287 3.58-.846.84-1.95 1.243-3.274 1.243s-2.428-.402-3.274-1.242c-.846-.84-1.287-2.01-1.287-3.58v-6.03h1.839v5.956c-.073.986.184 1.754.662 2.338zm26.815-8.293h1.839V56.41h-1.986l-6.106-7.818v7.818h-1.839V45.67h1.839l6.29 8.001v-8.001h-.037zm22.254 1.425c1.03.95 1.545 2.228 1.545 3.909 0 1.68-.515 2.996-1.508 3.946-.993.986-2.538 1.461-4.635 1.461h-3.568V45.67h3.715c1.913 0 3.421.475 4.451 1.425zm-.258 3.945c0-2.447-1.434-3.69-4.23-3.69h-1.839v7.344h2.023c1.325 0 2.318-.292 3.017-.913.662-.622 1.029-1.535 1.029-2.74zm14.971 2.923l-1.067 2.448h-1.949l4.745-10.741h1.95l4.745 10.741h-1.95l-1.067-2.448h-5.407zm4.672-1.68l-1.95-4.421-1.949 4.42h3.899zm17.766-4.933v9.061h-1.839v-9.06h-3.274v-1.645h8.387v1.644h-3.274zm14.529-1.68h1.839V56.41h-1.839V45.67zm23.1 9.243c-1.103 1.06-2.428 1.571-4.046 1.571-1.619 0-2.943-.511-4.046-1.57-1.104-1.06-1.655-2.376-1.655-3.947 0-1.57.551-2.886 1.655-3.945 1.103-1.06 2.427-1.571 4.046-1.571 1.618 0 2.943.511 4.046 1.57 1.104 1.06 1.655 2.375 1.655 3.946 0 1.571-.551 2.887-1.655 3.946zm-1.324-6.686c-.736-.767-1.655-1.132-2.722-1.132s-1.986.365-2.722 1.132a3.822 3.822 0 00-1.104 2.74c0 1.096.368 2.01 1.104 2.74.736.731 1.655 1.133 2.722 1.133s1.986-.365 2.722-1.133a3.82 3.82 0 001.103-2.74c0-1.096-.367-2.009-1.103-2.74zm22.621-2.557h1.84V56.41h-1.987l-6.106-7.818v7.818h-1.839V45.67h1.839l6.29 8.001-.037-8.001zM33.84 49.943c9.307-1.315 16.442-9.243 16.442-18.815 0-5.846-2.648-11.034-6.804-14.541l-9.638 9.572v23.784zm-5.407 0V26.16l-9.637-9.609a18.896 18.896 0 00-6.805 14.541c0 9.61 7.136 17.537 16.442 18.852zm19.348-35.365c4.451 4.42 6.879 10.302 6.879 16.513 0 6.211-2.465 12.13-6.879 16.514-4.45 4.42-10.373 6.832-16.626 6.832a23.545 23.545 0 01-16.626-6.832c-4.414-4.384-6.915-10.266-6.915-16.514 0-6.247 2.465-12.13 6.879-16.514.367-.365.772-.73 1.177-1.096L10.3 8.147c-.405.366-.773.731-1.178 1.096-2.869 2.85-5.113 6.138-6.658 9.828A30.563 30.563 0 000 31.091c0 4.165.81 8.22 2.464 12.02 1.582 3.69 3.826 6.979 6.658 9.828 2.87 2.85 6.18 5.079 9.895 6.613A31.132 31.132 0 0031.119 62c4.193 0 8.276-.804 12.101-2.448a31.698 31.698 0 009.895-6.613c2.869-2.85 5.113-6.138 6.658-9.828a30.565 30.565 0 002.464-12.02c0-4.165-.81-8.22-2.464-12.02-1.582-3.69-3.826-6.978-6.658-9.828-.368-.365-.773-.73-1.177-1.096l-5.334 5.334c.405.33.773.695 1.177 1.097zM31.12 0c5.37 0 9.71 4.311 9.71 9.645s-4.34 9.646-9.71 9.646c-5.37 0-9.711-4.312-9.711-9.646 0-5.334 4.34-9.645 9.71-9.645z"/></symbol><symbol viewBox="0 0 24 24" id="mail" xmlns="http://www.w3.org/2000/svg"><path fill="none" d="M0 0h24v24H0z"/><path d="M20 4H4c-1.1 0-1.99.9-1.99 2L2 18c0 1.1.9 2 2 2h16c1.1 0 2-.9 2-2V6c0-1.1-.9-2-2-2zm0 14H4V8l8 5 8-5v10zm-8-7L4 6h16l-8 5z"/></symbol><symbol fill="none" viewBox="0 0 20 20" id="menu" xmlns="http://www.w3.org/2000/svg"><path fill-rule="evenodd" clip-rule="evenodd" d="M1 4v2h18V4H1zm0 7h18V9H1v2zm0 5h18v-2H1v2z" fill="#000"/></symbol><symbol viewBox="0 0 24 24" id="open" xmlns="http://www.w3.org/2000/svg"><path d="M0 0h24v24H0z" fill="none"/><path d="M19 19H5V5h7V3H5a2 2 0 00-2 2v14a2 2 0 002 2h14c1.1 0 2-.9 2-2v-7h-2v7zM14 3v2h3.59l-9.83 9.83 1.41 1.41L19 6.41V10h2V3h-7z"/></symbol><symbol viewBox="0 0 24 24" id="search" xmlns="http://www.w3.org/2000/svg"><path d="M15.5 14h-.79l-.28-.27A6.471 6.471 0 0016 9.5 6.5 6.5 0 109.5 16c1.61 0 3.09-.59 4.23-1.57l.27.28v.79l5 4.99L20.49 19l-4.99-5zm-6 0C7.01 14 5 11.99 5 9.5S7.01 5 9.5 5 14 7.01 14 9.5 11.99 14 9.5 14z"/></symbol><symbol viewBox="0 0 264 512" id="social-facebook" xmlns="http://www.w3.org/2000/svg"><path d="M76.7 512V283H0v-91h76.7v-71.7C76.7 42.4 124.3 0 193.8 0c33.3 0 61.9 2.5 70.2 3.6V85h-48.2c-37.8 0-45.1 18-45.1 44.3V192H256l-11.7 91h-73.6v229"/></symbol><symbol viewBox="0 0 264 512" id="social-facebook-blue" xmlns="http://www.w3.org/2000/svg"><path fill="#3A25FF" d="M76.7 512V283H0v-91h76.7v-71.7C76.7 42.4 124.3 0 193.8 0c33.3 0 61.9 2.5 70.2 3.6V85h-48.2c-37.8 0-45.1 18-45.1 44.3V192H256l-11.7 91h-73.6v229"/></symbol><symbol viewBox="0 0 448 512" id="social-instagram" xmlns="http://www.w3.org/2000/svg"><path d="M224.1 141c-63.6 0-114.9 51.3-114.9 114.9s51.3 114.9 114.9 114.9S339 319.5 339 255.9 287.7 141 224.1 141zm0 189.6c-41.1 0-74.7-33.5-74.7-74.7s33.5-74.7 74.7-74.7 74.7 33.5 74.7 74.7-33.6 74.7-74.7 74.7zm146.4-194.3c0 14.9-12 26.8-26.8 26.8-14.9 0-26.8-12-26.8-26.8s12-26.8 26.8-26.8 26.8 12 26.8 26.8zm76.1 27.2c-1.7-35.9-9.9-67.7-36.2-93.9-26.2-26.2-58-34.4-93.9-36.2-37-2.1-147.9-2.1-184.9 0-35.8 1.7-67.6 9.9-93.9 36.1s-34.4 58-36.2 93.9c-2.1 37-2.1 147.9 0 184.9 1.7 35.9 9.9 67.7 36.2 93.9s58 34.4 93.9 36.2c37 2.1 147.9 2.1 184.9 0 35.9-1.7 67.7-9.9 93.9-36.2 26.2-26.2 34.4-58 36.2-93.9 2.1-37 2.1-147.8 0-184.8zM398.8 388c-7.8 19.6-22.9 34.7-42.6 42.6-29.5 11.7-99.5 9-132.1 9s-102.7 2.6-132.1-9c-19.6-7.8-34.7-22.9-42.6-42.6-11.7-29.5-9-99.5-9-132.1s-2.6-102.7 9-132.1c7.8-19.6 22.9-34.7 42.6-42.6 29.5-11.7 99.5-9 132.1-9s102.7-2.6 132.1 9c19.6 7.8 34.7 22.9 42.6 42.6 11.7 29.5 9 99.5 9 132.1s2.7 102.7-9 132.1z"/></symbol><symbol viewBox="0 0 448 512" id="social-instagram-blue" xmlns="http://www.w3.org/2000/svg"><path fill="#3A25FF" d="M224.1 141c-63.6 0-114.9 51.3-114.9 114.9s51.3 114.9 114.9 114.9S339 319.5 339 255.9 287.7 141 224.1 141zm0 189.6c-41.1 0-74.7-33.5-74.7-74.7s33.5-74.7 74.7-74.7 74.7 33.5 74.7 74.7-33.6 74.7-74.7 74.7zm146.4-194.3c0 14.9-12 26.8-26.8 26.8-14.9 0-26.8-12-26.8-26.8s12-26.8 26.8-26.8 26.8 12 26.8 26.8zm76.1 27.2c-1.7-35.9-9.9-67.7-36.2-93.9-26.2-26.2-58-34.4-93.9-36.2-37-2.1-147.9-2.1-184.9 0-35.8 1.7-67.6 9.9-93.9 36.1s-34.4 58-36.2 93.9c-2.1 37-2.1 147.9 0 184.9 1.7 35.9 9.9 67.7 36.2 93.9s58 34.4 93.9 36.2c37 2.1 147.9 2.1 184.9 0 35.9-1.7 67.7-9.9 93.9-36.2 26.2-26.2 34.4-58 36.2-93.9 2.1-37 2.1-147.8 0-184.8zM398.8 388c-7.8 19.6-22.9 34.7-42.6 42.6-29.5 11.7-99.5 9-132.1 9s-102.7 2.6-132.1-9c-19.6-7.8-34.7-22.9-42.6-42.6-11.7-29.5-9-99.5-9-132.1s-2.6-102.7 9-132.1c7.8-19.6 22.9-34.7 42.6-42.6 29.5-11.7 99.5-9 132.1-9s102.7-2.6 132.1 9c19.6 7.8 34.7 22.9 42.6 42.6 11.7 29.5 9 99.5 9 132.1s2.7 102.7-9 132.1z"/></symbol><symbol viewBox="0 0 24 24" id="social-linkedin" xmlns="http://www.w3.org/2000/svg"><path d="M19 0H5a5 5 0 00-5 5v14a5 5 0 005 5h14a5 5 0 005-5V5a5 5 0 00-5-5zM8 19H5V8h3v11zM6.5 6.732c-.966 0-1.75-.79-1.75-1.764s.784-1.764 1.75-1.764 1.75.79 1.75 1.764-.783 1.764-1.75 1.764zM20 19h-3v-5.604c0-3.368-4-3.113-4 0V19h-3V8h3v1.765c1.396-2.586 7-2.777 7 2.476V19z"/></symbol><symbol viewBox="0 0 24 24" id="social-linkedin-blue" xmlns="http://www.w3.org/2000/svg"><path fill="#3A25FF" d="M19 0H5a5 5 0 00-5 5v14a5 5 0 005 5h14a5 5 0 005-5V5a5 5 0 00-5-5zM8 19H5V8h3v11zM6.5 6.732c-.966 0-1.75-.79-1.75-1.764s.784-1.764 1.75-1.764 1.75.79 1.75 1.764-.783 1.764-1.75 1.764zM20 19h-3v-5.604c0-3.368-4-3.113-4 0V19h-3V8h3v1.765c1.396-2.586 7-2.777 7 2.476V19z"/></symbol><symbol viewBox="0 0 512 512" id="social-pinterest" xmlns="http://www.w3.org/2000/svg"><path d="M256 32C132.3 32 32 132.3 32 256c0 91.7 55.2 170.5 134.1 205.2-.6-15.6-.1-34.4 3.9-51.4 4.3-18.2 28.8-122.1 28.8-122.1s-7.2-14.3-7.2-35.4c0-33.2 19.2-58 43.2-58 20.4 0 30.2 15.3 30.2 33.6 0 20.5-13.1 51.1-19.8 79.5-5.6 23.8 11.9 43.1 35.4 43.1 42.4 0 71-54.5 71-119.1 0-49.1-33.1-85.8-93.2-85.8-67.9 0-110.3 50.7-110.3 107.3 0 19.5 5.8 33.3 14.8 43.9 4.1 4.9 4.7 6.9 3.2 12.5-1.1 4.1-3.5 14-4.6 18-1.5 5.7-6.1 7.7-11.2 5.6-31.3-12.8-45.9-47-45.9-85.6 0-63.6 53.7-139.9 160.1-139.9 85.5 0 141.8 61.9 141.8 128.3 0 87.9-48.9 153.5-120.9 153.5-24.2 0-46.9-13.1-54.7-27.9 0 0-13 51.6-15.8 61.6-4.7 17.3-14 34.5-22.5 48 20.1 5.9 41.4 9.2 63.5 9.2 123.7 0 224-100.3 224-224C480 132.3 379.7 32 256 32z"/></symbol><symbol viewBox="0 0 512 512" id="social-twitter" xmlns="http://www.w3.org/2000/svg"><path d="M459.37 151.716c.325 4.548.325 9.097.325 13.645 0 138.72-105.583 298.558-298.558 298.558-59.452 0-114.68-17.219-161.137-47.106 8.447.974 16.568 1.299 25.34 1.299 49.055 0 94.213-16.568 130.274-44.832-46.132-.975-84.792-31.188-98.112-72.772 6.498.974 12.995 1.624 19.818 1.624 9.421 0 18.843-1.3 27.614-3.573-48.081-9.747-84.143-51.98-84.143-102.985v-1.299c13.969 7.797 30.214 12.67 47.431 13.319-28.264-18.843-46.781-51.005-46.781-87.391 0-19.492 5.197-37.36 14.294-52.954 51.655 63.675 129.3 105.258 216.365 109.807-1.624-7.797-2.599-15.918-2.599-24.04 0-57.828 46.782-104.934 104.934-104.934 30.213 0 57.502 12.67 76.67 33.137 23.715-4.548 46.456-13.32 66.599-25.34-7.798 24.366-24.366 44.833-46.132 57.827 21.117-2.273 41.584-8.122 60.426-16.243-14.292 20.791-32.161 39.308-52.628 54.253z"/></symbol><symbol viewBox="0 0 512 512" id="social-twitter-blue" xmlns="http://www.w3.org/2000/svg"><path fill="#3A25FF" d="M459.37 151.716c.325 4.548.325 9.097.325 13.645 0 138.72-105.583 298.558-298.558 298.558-59.452 0-114.68-17.219-161.137-47.106 8.447.974 16.568 1.299 25.34 1.299 49.055 0 94.213-16.568 130.274-44.832-46.132-.975-84.792-31.188-98.112-72.772 6.498.974 12.995 1.624 19.818 1.624 9.421 0 18.843-1.3 27.614-3.573-48.081-9.747-84.143-51.98-84.143-102.985v-1.299c13.969 7.797 30.214 12.67 47.431 13.319-28.264-18.843-46.781-51.005-46.781-87.391 0-19.492 5.197-37.36 14.294-52.954 51.655 63.675 129.3 105.258 216.365 109.807-1.624-7.797-2.599-15.918-2.599-24.04 0-57.828 46.782-104.934 104.934-104.934 30.213 0 57.502 12.67 76.67 33.137 23.715-4.548 46.456-13.32 66.599-25.34-7.798 24.366-24.366 44.833-46.132 57.827 21.117-2.273 41.584-8.122 60.426-16.243-14.292 20.791-32.161 39.308-52.628 54.253z"/></symbol><symbol viewBox="0 0 512 512" id="social-youtube" xmlns="http://www.w3.org/2000/svg"><path d="M508.6 148.8c0-45-33.1-81.2-74-81.2C379.2 65 322.7 64 265 64h-18c-57.6 0-114.2 1-169.6 3.6C36.6 67.6 3.5 104 3.5 149 1 184.6-.1 220.2 0 255.8c-.1 35.6 1 71.2 3.4 106.9 0 45 33.1 81.5 73.9 81.5 58.2 2.7 117.9 3.9 178.6 3.8 60.8.2 120.3-1 178.6-3.8 40.9 0 74-36.5 74-81.5 2.4-35.7 3.5-71.3 3.4-107 .2-35.6-.9-71.2-3.3-106.9zM207 353.9V157.4l145 98.2-145 98.3z"/></symbol><symbol fill="none" viewBox="0 0 20 20" id="translate" xmlns="http://www.w3.org/2000/svg"><path fill-rule="evenodd" clip-rule="evenodd" d="M10.17 12.11a13.43 13.43 0 01-2.91-1.41 11.46 11.46 0 002.81-5.37H12V4H7.31a4 4 0 00-.2-.56C6.87 2.79 6.6 2 6.6 2l-1.47.5s.4.89.6 1.5H0v1.33h2.15A11.23 11.23 0 005 10.7a17.19 17.19 0 01-5 2.1c.373.547.663 1.007.87 1.38a23.28 23.28 0 005.22-2.51 15.643 15.643 0 003.56 1.77l.52-1.33zM18.56 18H20L15.44 6.51h-1.89L9 17.98h1.38a.59.59 0 00.4-.14.77.77 0 00.22-.3L12 15h5l.93 2.57c.05.12.13.227.23.31a.61.61 0 00.4.12zm-3.67-8.5l1.58 4.19-3.93.01 1.58-4.19.19-.56c.067-.213.13-.443.19-.69.107.42.237.834.39 1.24zM8.54 5.33H3.63a9.11 9.11 0 002.46 4.45 8.11 8.11 0 002.45-4.45z" fill="currentColor"/></symbol><symbol viewBox="0 0 24 24" id="trending" xmlns="http://www.w3.org/2000/svg"><path d="M22 12l-4-4v3H3v2h15v3z"/><path d="M0 0h24v24H0z" fill="none"/></symbol><symbol viewBox="0 0 20 20" id="upTriangle" xmlns="http://www.w3.org/2000/svg"><path d="M10 5l8 10H2l8-10z"/></symbol><symbol viewBox="0 0 20 20" id="userAvatar" xmlns="http://www.w3.org/2000/svg"><path d="M10 12.5c-5.92 0-9 3.5-9 5.5v1h18v-1c0-2-3.08-5.5-9-5.5z"/><circle cx="10" cy="6" r="5"/></symbol><symbol viewBox="0 0 64 64" id="wikimedia" xmlns="http://www.w3.org/2000/svg"><use xlink:href="#bcpath0_fill"/><defs><path id="bcpath0_fill" d="M34.8 51.554c9.569-1.357 16.907-9.541 16.907-19.422 0-6.034-2.724-11.39-6.998-15.01l-9.91 9.88v24.552zm-5.561 0V27.003l-9.91-9.919a19.535 19.535 0 00-6.998 15.01c0 9.919 7.338 18.103 16.908 19.46zm19.896-36.506a23.93 23.93 0 017.073 17.046c0 6.412-2.534 12.521-7.073 17.047-4.577 4.563-10.667 7.052-17.097 7.052a24.165 24.165 0 01-17.097-7.052C10.4 44.615 7.83 38.543 7.83 32.094s2.534-12.52 7.073-17.046c.378-.377.794-.755 1.21-1.132L10.591 8.41c-.416.377-.794.754-1.21 1.132-2.95 2.941-5.258 6.335-6.847 10.144A31.653 31.653 0 000 32.094c0 4.3.832 8.486 2.534 12.408 1.627 3.81 3.934 7.203 6.847 10.145 2.95 2.942 6.354 5.242 10.175 6.826A31.908 31.908 0 0032 64c4.312 0 8.51-.83 12.444-2.527a32.585 32.585 0 0010.175-6.826c2.95-2.942 5.258-6.336 6.847-10.145A31.654 31.654 0 0064 32.094c0-4.3-.832-8.485-2.534-12.408-1.627-3.809-3.934-7.203-6.847-10.144a35.45 35.45 0 00-1.21-1.132l-5.485 5.506c.416.34.795.717 1.21 1.132zM32 0c5.523 0 9.986 4.45 9.986 9.956 0 5.507-4.463 9.957-9.986 9.957-5.523 0-9.986-4.45-9.986-9.957C22.014 4.45 26.477 0 32 0z"/></defs></symbol><symbol viewBox="0 0 1024 1024" id="wikimedia-blue" xmlns="http://www.w3.org/2000/svg"><clipPath id="bda"><path fill="#3A25FF" d="M0-33l471 471v363h82V438l471-471v1057H0"/></clipPath><g clip-path="url(#bda)"><path fill="#3A25FF" d="M511 224a288 288 0 102 0"/><path fill="none" stroke="#3A25FF" stroke-width="116" d="M511 102a410 410 0 102 0"/></g><path fill="#3A25FF" d="M511 28a158 158 0 102 0z"/></symbol><symbol stroke-miterlimit="10" shape-rendering="geometricPrecision" fill-rule="evenodd" viewBox="0 0 128 128" id="wikipedia" xmlns="http://www.w3.org/2000/svg"><path fill="#3A25FF" d="M120.85 29.21c0 .41-.13.78-.38 1.12-.26.33-.53.5-.84.5-2.49.24-4.54 1.04-6.12 2.41-1.59 1.36-3.22 3.97-4.91 7.81L82.8 99.19c-.17.54-.64.81-1.42.81-.61 0-1.08-.27-1.42-.81L65.49 68.93 48.85 99.19c-.34.54-.81.81-1.42.81-.74 0-1.23-.27-1.47-.81L20.61 41.05c-1.58-3.61-3.25-6.13-5.01-7.56-1.75-1.43-4.2-2.32-7.33-2.66-.27 0-.53-.14-.76-.43-.24-.28-.36-.61-.36-.98 0-.95.27-1.42.81-1.42 2.26 0 4.62.1 7.09.3 2.29.21 4.45.31 6.47.31 2.06 0 4.49-.1 7.29-.31 2.93-.2 5.53-.3 7.79-.3.54 0 .81.47.81 1.42 0 .94-.17 1.41-.5 1.41-2.26.17-4.04.75-5.34 1.72-1.3.98-1.95 2.26-1.95 3.85 0 .81.27 1.82.81 3.03l20.95 47.31 11.89-22.46-11.08-23.23c-1.99-4.14-3.63-6.82-4.91-8.02-1.28-1.19-3.22-1.93-5.82-2.2-.24 0-.46-.14-.68-.43-.22-.28-.33-.61-.33-.98 0-.95.23-1.42.71-1.42 2.26 0 4.33.1 6.22.3 1.82.21 3.76.31 5.82.31 2.02 0 4.16-.1 6.42-.31 2.33-.2 4.62-.3 6.88-.3.54 0 .81.47.81 1.42 0 .94-.16 1.41-.5 1.41-4.52.31-6.78 1.59-6.78 3.85 0 1.01.52 2.58 1.57 4.7l7.33 14.88 7.29-13.61c1.01-1.92 1.52-3.54 1.52-4.86 0-3.1-2.26-4.75-6.78-4.96-.41 0-.61-.47-.61-1.41 0-.34.1-.66.3-.96.21-.31.41-.46.61-.46 1.62 0 3.61.1 5.97.3 2.26.21 4.12.31 5.57.31 1.04 0 2.58-.09 4.6-.26 2.56-.23 4.71-.35 6.43-.35.4 0 .6.4.6 1.21 0 1.08-.37 1.62-1.11 1.62-2.63.27-4.75 1-6.35 2.18-1.6 1.18-3.6 3.86-5.99 8.04l-9.72 17.97 13.16 26.81 19.43-45.18c.67-1.65 1.01-3.17 1.01-4.55 0-3.31-2.26-5.06-6.78-5.27-.41 0-.61-.47-.61-1.41 0-.95.3-1.42.91-1.42 1.65 0 3.61.1 5.87.3 2.09.21 3.85.31 5.26.31 1.49 0 3.21-.1 5.16-.31 2.03-.2 3.85-.3 5.47-.3.47 0 .71.4.71 1.21z"/></symbol><symbol stroke-miterlimit="10" shape-rendering="geometricPrecision" fill-rule="evenodd" viewBox="0 0 128 128" id="wikipedia-black" xmlns="http://www.w3.org/2000/svg"><path d="M120.85 29.21c0 .41-.13.78-.38 1.12-.26.33-.53.5-.84.5-2.49.24-4.54 1.04-6.12 2.41-1.59 1.36-3.22 3.97-4.91 7.81L82.8 99.19c-.17.54-.64.81-1.42.81-.61 0-1.08-.27-1.42-.81L65.49 68.93 48.85 99.19c-.34.54-.81.81-1.42.81-.74 0-1.23-.27-1.47-.81L20.61 41.05c-1.58-3.61-3.25-6.13-5.01-7.56-1.75-1.43-4.2-2.32-7.33-2.66-.27 0-.53-.14-.76-.43-.24-.28-.36-.61-.36-.98 0-.95.27-1.42.81-1.42 2.26 0 4.62.1 7.09.3 2.29.21 4.45.31 6.47.31 2.06 0 4.49-.1 7.29-.31 2.93-.2 5.53-.3 7.79-.3.54 0 .81.47.81 1.42 0 .94-.17 1.41-.5 1.41-2.26.17-4.04.75-5.34 1.72-1.3.98-1.95 2.26-1.95 3.85 0 .81.27 1.82.81 3.03l20.95 47.31 11.89-22.46-11.08-23.23c-1.99-4.14-3.63-6.82-4.91-8.02-1.28-1.19-3.22-1.93-5.82-2.2-.24 0-.46-.14-.68-.43-.22-.28-.33-.61-.33-.98 0-.95.23-1.42.71-1.42 2.26 0 4.33.1 6.22.3 1.82.21 3.76.31 5.82.31 2.02 0 4.16-.1 6.42-.31 2.33-.2 4.62-.3 6.88-.3.54 0 .81.47.81 1.42 0 .94-.16 1.41-.5 1.41-4.52.31-6.78 1.59-6.78 3.85 0 1.01.52 2.58 1.57 4.7l7.33 14.88 7.29-13.61c1.01-1.92 1.52-3.54 1.52-4.86 0-3.1-2.26-4.75-6.78-4.96-.41 0-.61-.47-.61-1.41 0-.34.1-.66.3-.96.21-.31.41-.46.61-.46 1.62 0 3.61.1 5.97.3 2.26.21 4.12.31 5.57.31 1.04 0 2.58-.09 4.6-.26 2.56-.23 4.71-.35 6.43-.35.4 0 .6.4.6 1.21 0 1.08-.37 1.62-1.11 1.62-2.63.27-4.75 1-6.35 2.18-1.6 1.18-3.6 3.86-5.99 8.04l-9.72 17.97 13.16 26.81 19.43-45.18c.67-1.65 1.01-3.17 1.01-4.55 0-3.31-2.26-5.06-6.78-5.27-.41 0-.61-.47-.61-1.41 0-.95.3-1.42.91-1.42 1.65 0 3.61.1 5.87.3 2.09.21 3.85.31 5.26.31 1.49 0 3.21-.1 5.16-.31 2.03-.2 3.85-.3 5.47-.3.47 0 .71.4.71 1.21z"/></symbol></svg>